<svg xmlns="http://www.w3.org/2000/svg"><style>:root svg:not(:target){display:none}</style><svg viewBox="0 0 256 256" fill="none" id="discord"><path d="M39.248 10.177a36.274 36.274 0 0 0-8.956-2.778.138.138 0 0 0-.144.068 25.147 25.147 0 0 0-1.115 2.291 33.517 33.517 0 0 0-10.059 0c-.3-.721-.744-1.603-1.133-2.291a.14.14 0 0 0-.144-.068 36.145 36.145 0 0 0-8.956 2.778.127.127 0 0 0-.059.051c-5.704 8.522-7.267 16.835-6.5 25.044a.15.15 0 0 0 .057.103c3.763 2.764 7.409 4.442 10.987 5.554a.141.141 0 0 0 .154-.051 26.114 26.114 0 0 0 2.248-3.656.14.14 0 0 0-.076-.194 23.958 23.958 0 0 1-3.432-1.636.14.14 0 0 1-.014-.234c.231-.173.461-.353.682-.534a.136.136 0 0 1 .142-.019c7.201 3.288 14.997 3.288 22.113 0a.135.135 0 0 1 .144.017c.22.182.451.363.683.536a.14.14 0 0 1-.012.234 22.516 22.516 0 0 1-3.434 1.634.141.141 0 0 0-.075.196 29.273 29.273 0 0 0 2.246 3.654c.035.049.097.07.154.052 3.595-1.112 7.241-2.79 11.004-5.554a.138.138 0 0 0 .057-.101c.917-9.491-1.537-17.735-6.505-25.044a.111.111 0 0 0-.057-.052zM16.703 30.273c-2.168 0-3.954-1.99-3.954-4.435 0-2.445 1.752-4.435 3.954-4.435 2.22 0 3.989 2.008 3.954 4.435.001 2.444-1.751 4.435-3.954 4.435zm14.621 0c-2.168 0-3.954-1.99-3.954-4.435 0-2.445 1.752-4.435 3.954-4.435 2.22 0 3.989 2.008 3.954 4.435 0 2.444-1.734 4.435-3.954 4.435z" transform="scale(5.33333)" fill="currentColor" stroke-miterlimit="10" font-family="none" font-weight="none" font-size="none" text-anchor="none" style="mix-blend-mode:normal"></path></svg><svg viewBox="0 0 50 50" fill="none" id="figma"><path d="M18.5 2C13.818 2 10 5.818 10 10.5c0 3.3 1.95 6.093 4.709 7.5C11.949 19.407 10 22.2 10 25.5s1.95 6.093 4.709 7.5C11.949 34.407 10 37.2 10 40.5c0 4.682 3.818 8.5 8.5 8.5s8.5-3.818 8.5-8.5V29.656C28.341 32.202 30.932 34 34 34c4.406 0 8-3.594 8-8 0-3.622-2.474-6.571-5.785-7.55C39.554 17.301 42 14.22 42 10.5 42 5.818 38.182 2 33.5 2h-15zm0 2H25v13h-6.5a6.485 6.485 0 0 1-6.5-6.5C12 6.898 14.898 4 18.5 4zM27 4h6.5c3.602 0 6.5 2.898 6.5 6.5S37.102 17 33.5 17H27V4zm-8.5 15H25v13h-6.5a6.485 6.485 0 0 1-6.5-6.5c0-3.602 2.898-6.5 6.5-6.5zm8.5 0h3.344A7.945 7.945 0 0 0 27 22.344V19zm7 1c3.326 0 6 2.674 6 6s-2.674 6-6 6-6-2.674-6-6 2.674-6 6-6zM18.5 34H25v6.5c0 3.602-2.898 6.5-6.5 6.5a6.485 6.485 0 0 1-6.5-6.5c0-3.602 2.898-6.5 6.5-6.5z" fill="currentColor"></path></svg><svg fill="none" id="github" viewBox="0 0 30 30"><path fill-rule="evenodd" clip-rule="evenodd" d="M15.012 0C6.711 0 0 6.875 0 15.38c0 6.8 4.3 12.554 10.265 14.59.746.154 1.019-.33 1.019-.737 0-.357-.025-1.579-.025-2.852-4.176.916-5.045-1.834-5.045-1.834-.671-1.782-1.666-2.24-1.666-2.24-1.367-.943.1-.943.1-.943 1.516.102 2.312 1.58 2.312 1.58 1.341 2.342 3.504 1.68 4.374 1.272.124-.993.522-1.68.944-2.062-3.33-.357-6.835-1.68-6.835-7.589 0-1.68.597-3.055 1.541-4.125-.149-.382-.671-1.96.15-4.074 0 0 1.267-.408 4.125 1.579a14.207 14.207 0 0 1 3.753-.51c1.268 0 2.56.179 3.753.51 2.859-1.987 4.126-1.58 4.126-1.58.82 2.114.298 3.693.15 4.075.969 1.07 1.54 2.445 1.54 4.125 0 5.908-3.504 7.207-6.86 7.589.547.483 1.02 1.4 1.02 2.852 0 2.062-.025 3.717-.025 4.227 0 .407.273.891 1.019.738C25.7 27.934 30 22.18 30 15.381 30.024 6.874 23.289 0 15.012 0Z" fill="currentColor"></path></svg><svg viewBox="0 0 50 50" fill="none" id="html"><path d="M5.281 2a1 1 0 0 0-.812 1.094L8 42.53a.997.997 0 0 0 .719.844l16 4.594a.985.985 0 0 0 .562 0l16-4.594a.997.997 0 0 0 .719-.844l3.531-39.437a.999.999 0 0 0-1-1.094H5.281Zm1.282 2h36.874l-3.343 37.656L25 45.938 9.906 41.656Zm5.968 6.063a1 1 0 0 0-.812 1.093l1.344 14.781a1 1 0 0 0 .968.938H30l-.438 4.594-4.53.968-4.595-.968-.156-1.625a1 1 0 0 0-1-.938h-4.875a.999.999 0 0 0-1 1.094l.563 6.125a1 1 0 0 0 .687.875l9.938 3.031.125.032a.985.985 0 0 0 .562 0L35.344 37a.995.995 0 0 0 .718-.875l1.313-15.031a.993.993 0 0 0-.246-.758 1.003 1.003 0 0 0-.723-.336H19.375l-.25-3.094h17.719a.996.996 0 0 0 1-.906l.437-4.844a.999.999 0 0 0-1-1.094H12.72a.753.753 0 0 0-.188 0Zm1.281 2h22.376l-.25 2.843H18.03a.999.999 0 0 0-1 1.094l.469 5.094a1 1 0 0 0 .969.906h16.843l-1.187 13.281L25 38.031l-9.125-2.75-.375-4.375h2.875l.125 1.469c.031.441.348.809.781.906l5.563 1.157c.133.027.273.027.406 0l5.469-1.157c.433-.097.75-.465.781-.906l.594-6.438a1.005 1.005 0 0 0-1-1.062H14.937Z" fill="currentColor"></path></svg><svg viewBox="0 0 50 50" fill="none" id="js"><path d="M6.668 4A2.684 2.684 0 0 0 4 6.668v36.664A2.684 2.684 0 0 0 6.668 46h36.664A2.682 2.682 0 0 0 46 43.332V6.668A2.682 2.682 0 0 0 43.332 4Zm0 2h36.664c.371 0 .668.297.668.668v36.664a.665.665 0 0 1-.668.668H6.668A.665.665 0 0 1 6 43.332V6.668C6 6.297 6.297 6 6.668 6ZM23 23v12.574c0 1.93-.73 2.426-2 2.426-1.328 0-2.25-.828-2.86-1.902L15 38c.91 1.926 3.14 4 6.234 4C24.656 42 27 40.18 27 36.184V23Zm12.453 0c-3.406 0-5.59 2.18-5.59 5.043 0 3.105 1.832 4.574 4.586 5.746l.953.41c1.739.762 2.598 1.227 2.598 2.535 0 1.09-.828 1.88-2.41 1.88-1.883 0-2.774-1.278-3.59-2.614l-3 2c1.121 2.215 3.133 4 6.676 4C39.3 42 42 40.117 42 36.684c0-3.188-1.828-4.606-5.074-5.996l-.953-.407c-1.637-.71-2.348-1.172-2.348-2.316 0-.926.71-1.637 1.828-1.637 1.098 0 1.8.465 2.453 1.637l2.973-1.906c-1.254-2.215-3-3.059-5.426-3.059Z" fill="currentColor"></path></svg><svg fill="none" id="linkedin" viewBox="0 0 24 24"><path d="M19 0H5a5 5 0 0 0-5 5v14a5 5 0 0 0 5 5h14a5 5 0 0 0 5-5V5a5 5 0 0 0-5-5zM8 19H5V8h3v11zM6.5 6.732c-.966 0-1.75-.79-1.75-1.764s.784-1.764 1.75-1.764 1.75.79 1.75 1.764-.783 1.764-1.75 1.764zM20 19h-3v-5.604c0-3.368-4-3.113-4 0V19h-3V8h3v1.765c1.396-2.586 7-2.777 7 2.476V19z" fill="currentColor"></path></svg><svg id="logo" viewBox="0 0 400 400"><path d="M178.322 1.9c-.156 3.777-.166 6.397-.25 66.7-.053 38.761-.223 60.98-.464 60.6-.208-.33-.565-.622-.793-.65a4.79 4.79 0 0 1-.715-.144c-.165-.052-1.2-.12-2.3-.15l-2-.056-.056-2c-.03-1.1-.096-2.18-.147-2.4-.05-.22-.072-.53-.048-.688.082-.547-1.356-.986-3.549-1.083-2.675-.119-2.409.191-2.513-2.921-.068-2.023-1.087-4.961-1.087-3.134 0 .259-.335.279-.921.056-.506-.192-1.598-.35-2.426-.35-1.874 0-1.765.144-1.882-2.48-.147-3.325-.353-3.545-3.441-3.682l-2.662-.118-.047-2.595c-.056-3.07-.651-3.589-4.121-3.599l-2.1-.006-.033-1.7c-.082-4.158-.286-4.417-3.531-4.478-2.929-.054-2.895-.02-2.934-2.888-.039-2.815-.409-3.169-3.446-3.292-2.718-.11-2.455.186-2.565-2.884-.104-2.91-.411-3.446-1.925-3.356-.591.035-1.854-.041-2.807-.169l-1.733-.233.102-2c.074-1.463-.008-1.839-.307-1.4-.249.366-.411.414-.415.124-.003-.262.194-.6.437-.751.759-.468-1.691-2.133-2.635-1.79-2.106.765-3.521-.267-3.314-2.419.105-1.093.034-2.085-.158-2.204a.413.413 0 0 1-.131-.568c.356-.576-1.058-1.059-3.405-1.163-2.669-.119-2.383.213-2.501-2.911-.116-3.058-.311-3.302-2.699-3.367-3.93-.107-3.6.145-3.6-2.751 0-1.467-.174-2.6-.4-2.6-.22 0-.4-.191-.4-.424 0-.233.225-.296.5-.141.4.226.4.175 0-.256-.275-.297-.501-.908-.501-1.359-.004-2.184-3.204-4.764-5.036-4.061-.343.132-.499.061-.36-.164.134-.217.069-.395-.144-.395-.214 0-.516-.756-.672-1.679-.37-2.188-1.92-3.738-4.108-4.108-.923-.156-1.679-.458-1.679-.672 0-.213-.178-.278-.395-.144-.225.139-.296-.017-.164-.36.699-1.821-1.866-5.021-4.041-5.042-1.315-.012-1.803-.559-2.314-2.589-.572-2.269-1.995-3.53-4.035-3.576-.754-.016-1.289-.165-1.188-.33.101-.165-.051-.301-.339-.302-.323-.001-.553-.567-.601-1.473-.11-2.112-1.26-3.425-3.565-4.07-1.077-.301-2.015-.697-2.084-.879-.069-.182-.366-.239-.659-.126-.293.112-.776-.1-1.074-.472-.562-.702-2.824-2.99-4.039-4.085-.384-.346-.6-.729-.479-.85s.346-.024.499.215c.153.239.672.557 1.153.707 1.05.328 3.325 2.824 3.325 3.649 0 .322.203.586.45.586 1.636 0-.751-4.184-2.736-4.795A46.049 46.049 0 0 1 72 22.509c-1.26-.483-1.808-.445-2.493.175-.389.352-.707.447-.707.211 0-.235.225-.528.5-.649.275-.122-.4-.187-1.5-.146l-2 .074-.233-1.733c-.128-.953-.204-2.216-.169-2.807.09-1.514-.446-1.821-3.356-1.925-3.07-.11-2.774.153-2.884-2.565-.123-3.037-.477-3.407-3.292-3.446-2.858-.039-2.82-.002-3.066-3.021-.268-3.289-.775-3.551-6.538-3.386-3.731.107-4.416.232-4.9.893-.579.793-.89 295.153-.313 297.303 1 3.73 16.951.801 16.951-3.112 0-1.078 1.11-1.975 2.441-1.975 3.065 0 4.441-1.455 4.854-5.135.097-.863.301-.94 2.637-1 3.05-.078 3.741-.733 3.654-3.465-.085-2.692-.093-2.677 1.247-2.481.677.1 1.622-.017 2.1-.26.477-.242 1.208-.4 1.624-.35.416.05.808-.138.87-.419.062-.28.021-.325-.09-.1-.112.226-.37.41-.574.41-.203 0-.152-.348.114-.774.266-.426.625-.687.798-.58.174.108.22-.579.103-1.525-.292-2.369.032-2.653 3.232-2.831 2.337-.131 2.771-.264 2.672-.823-.064-.367.085-.667.332-.667.291 0 .357-.422.186-1.2-.579-2.637-.002-3.492 2.334-3.459 2.817.041 3.681-.809 3.815-3.757.12-2.64-.182-2.388 2.995-2.495 1.46-.049 2.655-.235 2.655-.413.001-.178.181-.212.401-.076.22.136.4.077.4-.132 0-.208.61-.493 1.355-.633 1.932-.363 3.204-1.839 3.975-4.614.612-2.199.67-7.213.67-57.648 0-43.929.102-55.206.499-55.073.274.091.6.781.725 1.533.451 2.71 1.154 3.316 4.776 4.116.929.205 1.002.394 1.025 2.647.033 3.083.497 3.552 3.826 3.863l2.606.243-.174 2.103c-.233 2.814.76 3.936 3.303 3.732 2.132-.171 2.413.131 2.857 3.074.417 2.766 1.181 3.374 4.257 3.383l1.9.006.006 1.9c.009 3.076.617 3.84 3.383 4.257 2.943.444 3.245.725 3.074 2.857-.205 2.547.888 3.499 3.81 3.321l2.203-.135.171 2.184c.259 3.313 3.405 5.667 5.687 4.257.206-.127.45.862.548 2.224.218 3.007 1.102 3.935 3.748 3.935 2.141 0 2.764.868 2.356 3.281-.159.944-.122 1.526.09 1.395.2-.123.581.124.847.55.266.426.317.774.114.774-.204 0-.462-.185-.574-.41-.112-.226-.156-.18-.1.1.057.28.629.538 1.27.572 4.282.226 5.834 1.813 4.69 4.794-.162.423-.101.577.164.414.521-.322 1.42.68 1.01 1.126-.164.177.142.214.678.081 2.461-.609 4.377.111 4.142 1.555-.119.733-.07 1.656.109 2.051.179.394.336 1.077.349 1.517.018.585.266.774.925.705.495-.053.9.099.9.337 0 .288.652.343 1.944.166l1.944-.268.245 1.53c.134.842.143 1.917.02 2.389-.355 1.355.5 2.552 1.761 2.467.597-.04 1.806-.039 2.686.001l1.6.073v86.5c0 47.575.108 86.95.24 87.5l.241 1h8.44c9.641 0 9.201.163 9.545-3.528l.25-2.672 1.842-.068c1.013-.038 2.287-.083 2.832-.1 1.066-.034 1.284-.687 1.369-4.097.044-1.793 1.564-2.521 3.994-1.911.654.164 1.015.037 1.19-.42.138-.36.392-.568.565-.461.172.107.367-1.006.433-2.472s.151-2.694.189-2.729c.128-.118 5.648-.537 6.955-.528 3.21.022 5.154-1.865 4.829-4.686-.081-.7-.004-1.184.17-1.076.174.107.317.05.317-.128.001-.178 1.053-.324 2.339-.324 3.042 0 3.538-.457 3.872-3.571l.27-2.522 1.819.206c1.421.16 1.749.091 1.499-.313-.242-.391-.073-.455.695-.262 1.176.295 2.052-.489 1.667-1.492-.138-.361-.061-.886.172-1.167.234-.281.414-2.034.402-3.895-.136-20.678.135-79.584.367-79.584.166 0 .24.793.163 1.763-.207 2.598.894 3.589 3.729 3.354l2.103-.174.243 2.606c.303 3.244.741 3.685 3.916 3.941l2.543.206v2.384c0 2.963.707 3.679 3.354 3.394 1.091-.117 1.545-.055 1.2.163-.413.262-.325.352.346.357.663.004.902.243.906.906.005.671.095.759.357.346.218-.345.28.109.163 1.2-.285 2.647.431 3.354 3.394 3.354h2.384l.206 2.543c.256 3.175.697 3.613 3.941 3.916l2.606.243-.174 2.103c-.233 2.814.76 3.936 3.303 3.732 2.152-.172 2.427.137 2.73 3.068.304 2.953.844 3.395 4.148 3.395 2.077 0 2.471.105 2.279.605-1.056 2.751.849 5.286 4.115 5.476l2.057.119.169 2.312c.213 2.913.809 3.518 3.779 3.837l2.337.251-.091 2c-.05 1.1.016 1.759.145 1.464.168-.38.371-.267.699.392.255.511.909 1.154 1.455 1.43.73.37.807.504.292.508-.385.003-1.06-.354-1.5-.794-.634-.634-.8-.673-.8-.19 0 .884 1.869 1.459 3.802 1.169 1.985-.298 2.865.992 2.393 3.509-.348 1.852.591 2.866 2.305 2.49.83-.182 1.116-.127.926.179-.18.292.211.443 1.15.443 1.365 0 1.424.059 1.424 1.424 0 .939.151 1.33.443 1.15.306-.19.361.096.179.926-.376 1.714.638 2.653 2.49 2.305 2.517-.472 3.807.408 3.509 2.393-.29 1.933.285 3.802 1.169 3.802.483 0 .444-.166-.19-.8-.44-.44-.797-1.115-.794-1.5.004-.515.138-.438.508.292.276.546.919 1.2 1.43 1.455.667.332.777.532.392.711-.295.137.286.166 1.29.063 2.078-.211 3.037 1.166 2.54 3.65-.34 1.699.668 2.634 2.473 2.295.885-.166 1.361-.099 1.361.189 0 .245.523.445 1.162.445 1.126 0 1.157.052.997 1.7-.09.935-.05 1.449.091 1.143.175-.383.42-.164.786.707.292.695.944 1.429 1.448 1.631.691.278.744.375.216.394-.385.014-1.06-.335-1.5-.775-.838-.838-1.057-.624-.407.4.28.442 1.008.577 2.766.512 2.626-.097 3.649 1.124 3.025 3.61-.309 1.229.405 2.678 1.319 2.678.542 0 .499-.123-.214-.623-.489-.342-.889-.792-.889-1 0-.207.36-.017.8.423.44.44.991.8 1.224.8.233 0 .301.197.153.438-.186.3.339.394 1.676.3l1.947-.138.251 2.337c.319 2.97.925 3.566 3.837 3.78l2.312.17.102 2.029c.157 3.137 3.383 5.515 5.613 4.137.392-.242.479.299.477 2.964-.002 3.368.006 3.371 9.251 3.469 5.36.057 8.286-.061 8.631-.348.429-.355.523-35.959.524-198.386L365.599 0H353.2v1.6c0 1.577-.021 1.6-1.5 1.628-4.263.078-4.574.313-4.676 3.535-.094 2.963-.028 2.896-2.89 2.935-2.815.039-3.169.409-3.292 3.446-.105 2.607-.076 2.557-1.525 2.551-.615-.002-1.454.173-1.865.39-.488.257-.664.258-.506.002.145-.234-.28-.346-1.051-.277-.712.063-1.266.267-1.23.453.036.185-.582.372-1.374.414-2.022.108-3.395 1.278-3.997 3.409l-.509 1.802-2.325.243c-3.84.401-4.198.787-4.241 4.572-.022 1.948-.544 2.297-2.803 1.874-2.099-.394-3.587.668-3.256 2.324.471 2.355-.445 3.838-2.224 3.6-1.066-.143-1.536-.055-1.536.29 0 .326-.334.412-.975.251-1.27-.319-1.538.177-1.66 3.063-.12 2.874-.029 2.778-2.707 2.842-1.199.029-2.089.2-1.979.38.111.179-.132.269-.539.2-.574-.099-.71.084-.607.817.075.535-.036.84-.255.704-.233-.144-.366.594-.333 1.856L303.4 47l-2 .064c-4.202.134-4.299.229-4.274 4.185l.012 1.848-2.196.258c-1.208.142-2.346.166-2.527.054-.182-.112-.439.076-.57.419-.132.342-.376.539-.542.436-.167-.102-.343.992-.392 2.431-.108 3.166.231 2.849-3.192 2.989-2.249.092-2.758.223-2.426.625.315.382.266.45-.198.272-.473-.182-.609.028-.577.891.023.62.006 1.848-.038 2.728l-.08 1.6-2.6-.014c-1.43-.008-2.6.137-2.6.323s-.164.237-.365.113c-.201-.124-.315.229-.254.786.061.556-.053 1.113-.254 1.237-.201.124-.246 1.02-.101 1.99l.265 1.765-1.946.033c-4.534.078-4.427-.022-4.512 4.256-.036 1.858-1.71 2.863-3.364 2.022-.402-.205-1.032-.253-1.4-.106-.368.146-1.119.349-1.669.45-3.959.725-4.849 1.407-5.407 4.145-.371 1.819-.87 2.4-2.062 2.4-2.275 0-3.635 1.407-4.292 4.442-.205.95-.447 1.066-2.721 1.303-3.091.324-3.656.867-3.914 3.765L247 97l-2.29.204c-2.903.258-3.441.821-3.767 3.936l-.263 2.519-1.991-.274c-1.118-.154-1.896-.12-1.774.077.119.193-.231.562-.778.821-.893.421-.941.403-.466-.172.446-.541.435-.609-.071-.432-.359.125-.57.632-.525 1.265.042.581-.093 1.056-.3 1.056-.231 0-.375-13.167-.375-34.2 0-27.09-.104-34.201-.5-34.206-.366-.005-.376-.085-.038-.301.597-.379.42-7.071-.207-7.826-.246-.297-.348-.641-.225-.764.123-.123-.014-.205-.303-.184-.29.022-1.672-.112-3.071-.297l-2.544-.335.262-1.979c.145-1.088.12-1.906-.056-1.817-.344.174-2.138-1.538-1.88-1.795.086-.086-2.183-.143-5.041-.126l-5.197.03-.036-1c-.02-.55-.065-1.853-.099-2.895-.073-2.203-.296-2.359-3.591-2.514-2.834-.133-2.722-.023-2.785-2.727-.029-1.216-.175-2.134-.325-2.041-.151.092-.249-.145-.219-.527.041-.512-.262-.705-1.145-.729-4.867-.134-4.479.033-4.794-2.067-.539-3.591-1.433-4.08-7.921-4.328l-4.085-.157-.123-1.607L190.354 0H178.4l-.078 1.9m16.519 9.305c1.811.503 3.429 1.889 3.755 3.216.249 1.013 4.096 3.712 5.291 3.712.937 0 2.513 1.783 2.513 2.842 0 1.414 2.398 2.919 5 3.139 2.626.222 3.211.514 3.305 1.647.136 1.637.851 3.039 1.55 3.039.77 0 5.042 1.27 5.345 1.589.605.638 2.072 1.25 1.773.741-.171-.292.082-.186.561.234.479.421.841.961.805 1.2-.098.638.818 2.725 1.551 3.535.349.386.506.701.349.701-.156 0-.004.4.338.889.343.489.623 1.215.623 1.613 0 .398.27.827.6.953.427.164.583.765.54 2.088l-.06 1.857-.28-1.8c-.154-.99-.301 16.2-.328 38.2-.033 27.454.081 39.779.362 39.297.225-.387.3-.88.167-1.096-.138-.223.025-.289.378-.154.342.131.621.082.621-.11s1.114-.404 2.476-.471c2.756-.137 5.011-1.384 5.869-3.245.736-1.596 1.267-2.108 4.132-3.987 1.609-1.055 2.862-2.204 3.142-2.88.257-.619.582-1.111.724-1.092.729.094 1.357-.095 1.117-.336-.438-.438 2.215-2.926 3.12-2.926.942 0 2.519-1.557 3.647-3.6.946-1.713 1.477-2.084 3.751-2.617 1.672-.392 1.806-.526 2.241-2.229.545-2.138 1.112-3.249 1.617-3.166 1.96.322 4.964-1.365 4.964-2.788 0-.606.268-1.324.596-1.596.327-.272.503-.644.39-.827-.113-.183.87-.545 2.186-.803 2.743-.54 3.424-1.146 3.76-3.346.312-2.032.96-2.639 3.113-2.911 2.215-.28 3.029-.988 3.355-2.917.318-1.881 1.173-2.692 3-2.845 2.161-.181 3.556-1.338 3.853-3.195.276-1.724 1.673-3.16 3.076-3.16 1.536 0 3.412-1.665 3.683-3.269.252-1.493 1.416-2.628 3.012-2.936 1.103-.212 2.776-2.017 2.776-2.995 0-1.021 1.699-2.8 2.674-2.8 1.223 0 4.524-2.511 4.525-3.442.001-.957 1.691-2.958 2.499-2.958.662 0 4.011-3.357 3.68-3.689-.268-.268 1.992-2.059 2.423-1.921.151.049.757-.375 1.348-.941.59-.566 1.665-1.235 2.387-1.487.879-.306 1.24-.647 1.093-1.03-.121-.316-.061-.475.133-.356.194.12.465-.23.603-.779.138-.548.437-.997.666-.997.229 0 .288.208.131.462-.177.286-.11.353.176.176.254-.157.462-.52.462-.808 0-.664 1.618-2.745 1.909-2.455.119.12.477.003.795-.261.317-.263.816-.514 1.109-.557.819-.12 2.56-1.499 2.574-2.038.046-1.755 2.142-3.5 4.785-3.983 1.46-.267 1.628-.465 1.628-1.915 0-2.177 3.913-4.664 5.65-3.59.39.241 1.55-2.401 1.55-3.529 0-.851 1.403-2.68 1.842-2.402 1.656 1.048 4.558-.749 4.558-2.824 0-1.287.797-2.858 1.468-2.894.182-.01 1.001-.152 1.818-.315 2.094-.42 4.372.807 5.697 3.067l1.017 1.736v181.445c0 130.845-.123 182.037-.442 183.565-.509 2.443-4.261 6.6-5.516 6.111a7.23 7.23 0 0 0-1.032-.321c-.485-.087-1.41-.922-1.41-1.272 0-.143-.54-.8-1.2-1.46-.66-.66-1.31-1.636-1.443-2.169-.134-.533-.404-.969-.6-.969-.197 0-.357-.27-.357-.6 0-.33-.21-.6-.467-.6-.256 0-.345-.121-.196-.27.309-.31-1.685-1.723-2.437-1.727-.598-.004-1.63-1.001-2.63-2.541-.415-.639-.964-1.035-1.273-.916-.355.136-.633-.201-.803-.972-.142-.649-.63-1.379-1.084-1.622-1.058-.566-2.681-2.403-2.697-3.052-.007-.275-.373-.522-.813-.55-1.33-.083-1.52-.135-1.867-.514-.196-.214-.086-.243.267-.07.489.239.485.196-.025-.236-.343-.292-.743-.845-.887-1.23-.145-.385-.494-.701-.775-.703-.282-.001-.961-.676-1.509-1.5-1.162-1.745-1.622-2.133-2.147-1.809-.214.133-.249.022-.079-.253.194-.313-.012-.571-.572-.717-.659-.173-.742-.312-.34-.567.432-.274.434-.34.01-.345-.288-.003-.412-.186-.276-.406.136-.22.023-.4-.252-.4-.916 0-3.106-1.777-3.34-2.711-.127-.507-.406-.814-.62-.682-.213.132-.388-.051-.388-.407s-.147-.556-.327-.445c-.179.111-.641-.332-1.026-.984-.385-.652-.836-1.101-1.003-.998-.448.277-5.289-4.79-4.942-5.173.164-.18.061-.191-.229-.024-.349.202-.601.021-.747-.536-.12-.462-.452-.84-.737-.84-.641 0-2.589-2.263-2.589-3.008 0-.342-.319-.485-.854-.382-.47.091-.751.061-.624-.065.298-.298-.634-1.314-1.001-1.092-.154.092-.209-.196-.123-.642.095-.495-.057-.811-.39-.811-.745 0-3.008-1.948-3.008-2.589 0-.285-.378-.617-.84-.737-.535-.14-.731-.398-.538-.709.169-.275.135-.386-.078-.254-.209.129-1.166-.563-2.127-1.538-.961-.975-1.898-1.773-2.082-1.773-.184 0-.335-.193-.335-.429 0-.611-.788-1.292-2.4-2.074-.77-.373-1.164-.683-.876-.688.287-.005-.279-.8-1.26-1.767-1.529-1.507-2.366-2.846-2.444-3.909-.011-.146-.17-.416-.353-.6-.321-.32-.465-.365-1.567-.489-.391-.044-.388-.127.014-.383.348-.22-.008-.482-1.1-.809-.888-.266-1.614-.687-1.614-.935s-.096-.354-.214-.236c-.118.117-.767-.303-1.442-.934-.676-.631-1.49-1.147-1.81-1.147-.32 0-.465-.188-.323-.418.142-.229.047-.671-.211-.982-.258-.311-.353-.753-.211-.982.142-.23.053-.418-.197-.418s-1.206-.788-2.123-1.751c-.918-.964-2.185-1.873-2.816-2.02-.631-.147-1.047-.368-.924-.491.215-.216-.055-.636-1.329-2.071a47.973 47.973 0 0 1-1.479-1.798c-.483-.617-1.527-1.638-2.321-2.269-.793-.63-1.433-1.248-1.421-1.373.072-.767-.022-1.015-.351-.927-.469.126-3.289-2.476-3.072-2.835.088-.146-.091-.497-.398-.781-.443-.41-.558-.412-.558-.011 0 .278-.305.06-.677-.484-.372-.544-.867-1.121-1.1-1.283-.233-.162-.261-.297-.063-.3.198-.003-.372-.536-1.266-1.184-.894-.648-1.757-1.592-1.918-2.098-.376-1.185-2.515-3.324-3.7-3.7-.506-.161-1.45-1.024-2.098-1.918-.648-.894-1.181-1.464-1.184-1.266-.003.198-.138.17-.3-.063-.162-.233-.739-.728-1.283-1.1-.544-.372-.762-.677-.484-.677.401 0 .399-.115-.011-.558-.284-.307-.635-.486-.781-.398-.359.217-2.961-2.603-2.835-3.072.088-.329-.16-.423-.927-.351-.125.012-.77-.663-1.433-1.5-.664-.836-1.505-1.689-1.869-1.894-.909-.513-2.042-1.917-2.058-2.551-.007-.288-.17-.426-.363-.307-.192.119-.677-.22-1.077-.753-.4-.532-.877-.875-1.06-.762-.183.113-.307.057-.276-.124.145-.83-.131-1.199-1.408-1.886-.754-.407-1.584-1.252-1.843-1.878-.26-.627-.813-1.248-1.229-1.38-.416-.132-.757-.494-.757-.804 0-.736-1.621-1.781-3.379-2.177-2.198-.496-2.43.088-1.874 4.709.536 4.453.575 74.666.045 81.557-.404 5.266-2.336 8.129-5.483 8.129-.241 0-.556.675-.699 1.5-.345 1.99-1.445 3.255-3.077 3.537-2.878.497-3.434.91-3.71 2.749-.31 2.07-1.094 2.854-3.223 3.225-2.358.411-3.221 1.122-3.778 3.112-.536 1.911-1.417 2.626-3.422 2.773-1.524.112-3.4 1.751-3.4 2.97 0 .514-.191.934-.424.934-.233 0-.33.15-.217.334.216.349-2.221 1.666-3.081 1.666-.831 0-3.478 2.412-3.478 3.168 0 .39-.36 1.125-.8 1.632-.44.507-.8.783-.8.612 0-.17-.276-.081-.614.2-.671.557-1.089.224-2.869-2.288-2.161-3.048-2.082.137-2.102-85.016-.017-71.027-.081-78.877-.659-80.6-.681-2.032-1.658-3.416-2.182-3.092-.175.108-.433.012-.574-.215-.14-.227-.917-.777-1.727-1.223-.81-.445-2.08-1.25-2.822-1.787-.742-.538-1.491-.89-1.664-.783-.386.238-2.387-2.079-2.387-2.764 0-.676-2.01-2.548-3.618-3.369-.727-.371-1.516-1.035-1.752-1.475-.237-.44-.61-.932-.83-1.094-.267-.196-.267-.296 0-.302.784-.016-2.501-2.658-4.028-3.239-1.218-.464-1.642-.891-1.963-1.978-.225-.763-.703-1.837-1.062-2.387-.36-.55-.902-1.54-1.205-2.2-.36-.784-1.035-1.362-1.947-1.667-.767-.257-1.352-.657-1.299-.888.053-.232-.276-.62-.73-.863-1.265-.677-2.225-1.765-2.491-2.824-.132-.527-.519-1.318-.859-1.758l-.618-.8.244.8c.134.44-.117.241-.558-.442-.504-.781-1.259-1.333-2.035-1.488-.679-.136-1.63-.702-2.114-1.259-.484-.556-1.162-1.017-1.507-1.024-1.286-.026-2.222-1.154-2.397-2.89-.017-.166-.468-.682-1.002-1.146-.534-.465-1.185-1.361-1.446-1.993-.262-.631-.612-1.064-.779-.96-.167.103-.631-.249-1.031-.782-.4-.532-.877-.875-1.06-.762-.183.113-.307.057-.276-.124.145-.83-.131-1.199-1.408-1.886-.754-.407-1.588-1.261-1.852-1.9-.265-.639-.666-1.275-.891-1.414-.255-.158-.288-.042-.086.308.178.309-.244.033-.938-.613-1.291-1.201-1.624-1.696-.8-1.187.265.164.354.111.208-.124-.139-.225-.775-.626-1.414-.891-.639-.264-1.493-1.098-1.9-1.852-.687-1.277-1.056-1.553-1.886-1.408-.181.031-.237-.093-.124-.276.113-.183-.23-.66-.762-1.06-.533-.4-.872-.885-.753-1.077.119-.193-.019-.356-.307-.363-.634-.016-2.038-1.149-2.551-2.058-.205-.364-1.003-1.175-1.773-1.803-.77-.628-1.46-1.408-1.533-1.732-.073-.325-.654-1.041-1.291-1.592-.638-.551-1.244-1.452-1.347-2.002-.653-3.475-.635-3.45-2.77-3.77-2.135-.32-3.013-.918-3.277-2.231-.802-3.979-.646-3.756-2.934-4.193-2.53-.484-3.442-1.436-3.826-3.996-.237-1.582-.466-1.918-1.752-2.574-1.187-.606-1.74-1.317-2.794-3.593-1.596-3.443-2.134-3.659-6.043-2.426-2.483.784-2.797.992-2.621 1.737.531 2.252 1.048 5.106 1.383 7.646.211 1.596.377 27.265.387 59.691l.018 56.891-.952.623c-1.152.755-2.583 4.378-3.218 8.15-.139.83-1.444 1.645-2.632 1.645-1.369 0-3.198 1.9-3.198 3.322 0 .979-1.161 2.635-1.9 2.708-2.251.223-4.883 1.666-4.931 2.703-.074 1.612-.397 2.323-1.432 3.149-.608.486-1.179.81-1.268.721-.449-.45-4.189 2.022-4.527 2.993-.233.667-.885 1.268-1.741 1.603-.752.296-1.46.777-1.572 1.069-.112.293-.48.532-.816.532-.337 0-.613.21-.613.467 0 .256-.092.375-.204.262-.746-.746-4.325 1.254-4.46 2.493-.079.718-.344 1.546-.589 1.841-.245.295-.288.543-.096.551.894.036-1.849 1.178-3.417 1.422-2.312.36-4.09-.579-5.432-2.869l-1.002-1.709V153.413c0-130.154.008-131.46.791-132.995 2.315-4.539 7.937-4.534 8.608.007.313 2.117 1.175 2.842 3.598 3.023 1.847.138 3.003 1.258 3.003 2.907 0 1.81.977 2.739 3.202 3.045 2.243.309 2.62.747 2.748 3.2.104 1.996.993 2.922 3.051 3.179 1.962.244 3.399 1.728 3.399 3.512 0 1.742 1.006 2.709 2.818 2.709 2.066 0 3.139 1.003 3.424 3.2.292 2.25.708 2.666 2.958 2.958 2.197.285 3.2 1.358 3.2 3.424 0 1.839.894 2.733 3.004 3.003 1.976.253 2.958 1.235 3.211 3.211.266 2.074 1.17 3.004 2.921 3.004 1.839 0 3.264 1.302 3.264 2.981 0 1.782.974 2.945 2.711 3.238.819.138 1.789.332 2.156.432.752.205 1.533 2.121 1.533 3.763 0 1.175 2.275 2.673 3.402 2.24 1.062-.407 2.597 1.286 2.607 2.875.013 2.112 1.012 3.162 3.203 3.365 2.091.194 3.014.654 3.02 1.506.021 2.986.845 4.21 3.071 4.56 1.649.26 3.078 1.006 3.131 1.636.019.222.077.944.129 1.604.159 2.016.994 2.903 3.012 3.201 2.402.355 3.225 1.136 3.225 3.061 0 2.043 1.095 3.138 3.138 3.138 1.936 0 2.857.956 3.119 3.241.22 1.909.88 2.577 2.936 2.966 2.324.441 2.709.828 3.012 3.03.348 2.533 1.152 3.376 3.562 3.737 1.971.296 2.633 1.099 2.633 3.197 0 1.404 1.688 2.845 3.471 2.962 1.814.119 2.822 1.019 2.984 2.667.21 2.132 1.304 3.269 3.369 3.502 2.243.252 2.58.557 2.85 2.576.308 2.292 1.207 3.242 3.284 3.472 2.212.245 2.847.88 3.092 3.092.236 2.129 1.33 3.136 3.421 3.149 1.589.01 3.282 1.545 2.875 2.607-.447 1.163 1.074 3.377 2.604 3.789.804.216 2.335.947 3.402 1.624 1.067.676 1.987 1.176 2.043 1.109 1.679-1.964 1.592 1.237 1.805-66.538.192-61.018.23-63.666.94-64.8 1.771-2.828 3.928-3.57 7.501-2.577m129.701 12.064c-.471.229-1.044.802-1.273 1.273-.228.472-.427.633-.442.358-.035-.648 1.425-2.108 2.073-2.073.275.015.114.214-.358.442m-6.642 6.16c-.605.328-1.1.801-1.1 1.05 0 .25-.119.335-.264.19-.386-.386 1.078-1.872 1.826-1.853.392.01.213.246-.462.613M80.94 31.127c.96.869 1.953 2.795 1.751 3.399-.086.259-.636-.288-1.222-1.216-.585-.928-1.606-1.967-2.267-2.309C78.541 30.659 78 30.209 78 30c0-.503 1.976.255 2.94 1.127m6.34 6.374c1.099 1.028 2.158 3.299 1.539 3.299-.187 0-.699-.609-1.138-1.353-.439-.744-1.357-1.683-2.04-2.086-.682-.404-1.241-.887-1.241-1.074 0-.583 1.747.154 2.88 1.214M233.901 75.2c-.047 19.03-.134 30.19-.193 24.8-.27-24.969-.279-60.279-.014-59.862.162.254.255 16.032.207 35.062m-2.211-34.308c-.234.281-.501 1.14-.593 1.91-.143 1.181-.179 1.1-.233-.526-.04-1.195.087-1.83.336-1.676.22.136.4.027.4-.243s.116-.375.257-.233c.141.141.066.487-.167.768M93.854 44.063c.926 1.015 1.602 2.739 1.073 2.734-.18-.001-.635-.543-1.011-1.203-.376-.661-1.304-1.568-2.064-2.016-.759-.448-1.472-1.053-1.584-1.344-.298-.778 2.519.659 3.586 1.829m4.85 5.135c1.166.711 2.891 2.917 2.895 3.702.003.74-.836.188-1.414-.928-.349-.676-1.253-1.593-2.01-2.04-.756-.446-1.375-.973-1.375-1.172 0-.545.469-.437 1.904.438m7.376 7.103c1.099 1.028 2.158 3.299 1.539 3.299-.187 0-.716-.637-1.176-1.416-.459-.779-1.376-1.724-2.037-2.1-.66-.376-1.202-.831-1.203-1.011-.005-.572 1.758.18 2.877 1.228M228.699 75.3c-.066 3.575-.12.65-.12-6.5s.054-10.075.12-6.5c.067 3.575.067 9.425 0 13m2.842-6.7c0 5.06-.144 10.01-.321 11-.191 1.075-.32-3.359-.32-11s.129-12.075.32-11c.177.99.321 5.94.321 11m-2.844 33.5c-.076 1.595-.138.29-.138-2.9s.062-4.495.138-2.9a73.8 73.8 0 0 1 0 5.8m2.833-2.1c-.005 1.65-.154 3.45-.33 4-.191.596-.316-1.345-.31-4.8.007-4.163.101-5.292.33-4 .177.99.316 3.15.31 4.8m75.164 13.021c-1.488 1.565-3.174 3.786-3.746 4.933-.572 1.148-1.138 1.99-1.257 1.87-.12-.119-.45-.024-.733.211-.284.236-1.094.519-1.8.631-2.724.429-3.039.718-3.331 3.06-.298 2.38-.743 2.674-4.048 2.674-1.588 0-2.979 1.515-2.979 3.245 0 1.299-1.033 2.124-3.2 2.555-2.089.416-3.074 1.202-3.615 2.886-.655 2.041-1.436 2.85-3.042 3.151-1.593.299-3.343 2.189-3.343 3.612 0 1.131-1.632 2.951-2.647 2.951-1.322 0-4.152 1.982-4.166 2.917-.018 1.247-.911 2.279-2.458 2.837-3.394 1.225-5.5 2.654-6.549 4.443-.581.992-1.249 1.803-1.485 1.803-.235 0-.309.119-.164.264.42.421-1.252 1.399-3.273 1.914-1.316.336-1.893.699-1.981 1.248a7.794 7.794 0 0 1-.364 1.374c-.132.33-.215.724-.185.876.031.151-.301.388-.736.527-.436.138-.792.389-.792.557 0 .169-.225.334-.5.367-3.403.408-4.476 1.048-4.623 2.757-.263 3.053-.892 3.716-3.524 3.716-1.913 0-3.353 1.32-3.353 3.072 0 1.431-1.694 2.928-3.312 2.928-1.897 0-3.026 1.309-3.108 3.602-.072 2.028-.689 3.998-1.252 3.998-.206 0-.248-.225-.093-.5.226-.4.175-.4-.256 0-.297.275-1.043.5-1.659.5H228l-.036 7.4c-.06 12.22-.061 12.215.336 12.153 1.367-.216 3.308.111 3.058.515-.189.306-.079.387.318.235.503-.193.615.222.652 2.407.056 3.262.711 4.058 3.737 4.536 2.225.352 3.006.987 3.383 2.754.509 2.379.967 2.8 3.046 2.8 2.047 0 3.683.589 3.311 1.192-.12.194-.032.468.195.608a.48.48 0 0 1 .167.654c-.884 1.43.242 3.017 2.607 3.675 2.57.715 3.703 1.837 4.208 4.171.221 1.019.485 1.3 1.224 1.3 1.45 0 2.982.706 4.141 1.908 1.594 1.653 2.693 2.462 2.3 1.692-.168-.33-.023-.251.323.176.347.428.63.973.63 1.212 0 .24.383.7.852 1.024 2.009 1.386 4.174 3.321 4.509 4.026.199.419.524.762.724.762.199 0 .273.144.165.319-.428.692 2.708 3.003 5.55 4.091.88.337 1.622.833 1.65 1.101.028.269.073.745.1 1.058.1 1.136 2.124 3.02 3.7 3.445 1.924.518 3.095 1.61 3.409 3.18.246 1.231 2.898 2.951 3.936 2.553.788-.303 2.205 1.803 2.205 3.278 0 1.444 1.479 2.975 2.874 2.975 1.708 0 3.11 1.156 3.369 2.778.33 2.063 1.895 3.552 3.872 3.686 1.97.132 3.085 1.189 3.085 2.923 0 1.403.624 2.102 3.084 3.451.731.4 1.558 1.47 2.224 2.877 1.445 3.052 2.041 3.31 5.752 2.485 3.218-.716 3.684-1.168 3.004-2.907-.236-.601-.481-1.453-.546-1.893-.065-.44-.298-.928-.518-1.085-.435-.311-.548-150.73-.117-155.657.27-3.079-.455-4.916-2.439-6.176-.574-.365-1.134-.771-1.244-.902-.718-.856-1.641-.353-4.106 2.241m-3.593 81.374c.069 45.063-.03 66.373-.306 66.202-.225-.139-.317-.4-.206-.579.111-.18-.021-.32-.293-.31-.273.01-1.621-.01-2.996-.045l-2.5-.063v-1.826c0-1.005-.186-2.175-.414-2.6-.29-.542-.285-.774.016-.774.265 0 .232-.213-.086-.556-.284-.305-.611-.405-.727-.221-.115.184-.475.167-.8-.038-.324-.205-1.444-.376-2.489-.379-1.526-.005-1.907-.144-1.936-.706a206.33 206.33 0 0 1-.102-2.865c-.074-2.414-.013-2.377-4.262-2.558l-1.8-.077.136-1.9c.09-1.251-.022-1.9-.327-1.9-.274 0-.364-.313-.22-.766.335-1.055-.379-1.394-3.15-1.496-2.749-.101-3.132-.483-2.8-2.792.245-1.701-.304-3.346-1.115-3.346-.253 0-.159.319.214.731 1.172 1.295.704 1.306-.532.013-1.068-1.119-1.378-1.229-2.956-1.051l-1.762.199-.17-2.358c-.212-2.924-.825-3.585-3.568-3.848-2.659-.256-2.983-.574-2.808-2.759.2-2.49-.558-3.201-3.779-3.546l-2.563-.274-.006-1.454c-.009-2.155-.798-3.381-2.548-3.957-1.865-.613-8.654-.988-9.23-.509-.282.234-.4-.549-.365-2.428.027-1.525-.108-2.87-.3-2.99-.193-.119-.351-.751-.351-1.405 0-3.015-2.086-5.164-5.011-5.164-.57 0-.953-.135-.852-.3.102-.165-.345-.338-.993-.385-.792-.058-1.762-.67-2.961-1.869l-1.783-1.783v-7.631c0-4.198.135-7.654.3-7.681.165-.027 1.38-.103 2.7-.169 1.32-.065 2.546-.133 2.724-.15.178-.018.194-.257.035-.532-.158-.275-.154-.381.008-.235 1.192 1.067 5.427-2.159 5.432-4.136 0-.37.226-.91.501-1.2.275-.291.559-1.697.632-3.125.152-3.001.37-3.226 3.068-3.171 2.024.042 5.258-.257 6.893-.637 1.121-.261 2.107-2.121 2.107-3.976 0-.996.179-1.42.6-1.42.33 0 .6-.136.6-.303 0-.166.793-.24 1.763-.163 2.445.195 3.568-.91 3.374-3.32-.179-2.239.384-2.709 3.317-2.767 2.64-.052 3.189-.484 3.112-2.447-.139-3.538-.111-3.596 1.734-3.642 4.326-.106 4.565-.281 4.594-3.378.028-2.949-.174-2.745 2.833-2.874 1.36-.058 2.473-.252 2.473-.43s.178-.213.395-.079c.227.14.294-.02.158-.376-.136-.354-.027-.621.254-.621.334 0 .416-.386.253-1.2-.565-2.823-.012-3.6 2.561-3.6 3.053 0 3.579-.533 3.579-3.629 0-2.652-.444-2.364 3.867-2.513.916-.032 1.591-.133 1.499-.226-.092-.092.11-.474.45-.849.339-.376.589-.84.553-1.033-.035-.192-.042-1.252-.016-2.354l.047-2.004 3.1.075 3.1.074.101 66.454m-69.203 1.105c-.072 2.145-.131.39-.131-3.9s.059-6.045.131-3.9a140.86 140.86 0 0 1 0 7.8m10.827 12.405c1.116 2.024.509 2.292-.713.315-.469-.759-1.473-1.763-2.232-2.232-1.977-1.222-1.709-1.829.315-.713a6.934 6.934 0 0 1 2.63 2.63M233.9 330.3c-.06 9.625-.109 1.75-.109-17.5s.049-27.125.109-17.5.06 25.375 0 35m65.135 15.655c-.201.085-.606-.174-.9-.576-.845-1.156-.624-1.438.365-.465.495.487.736.956.535 1.041m6.719 6.377c-.219.339-1.754-.826-1.754-1.332 0-.404.269-.312.92.314.506.487.882.946.834 1.018m12.133 12.406c-.459.201-1.487-.748-1.487-1.373 0-.345.321-.221.9.349.495.487.759.948.587 1.024" fill="currentColor" fill-rule="evenodd"></path></svg><svg fill="currentColor" class="bi bi-envelope-at" viewBox="0 0 16 16" id="mail"><path d="M2 2a2 2 0 0 0-2 2v8.01A2 2 0 0 0 2 14h5.5a.5.5 0 0 0 0-1H2a1 1 0 0 1-.966-.741l5.64-3.471L8 9.583l7-4.2V8.5a.5.5 0 0 0 1 0V4a2 2 0 0 0-2-2H2Zm3.708 6.208L1 11.105V5.383l4.708 2.825ZM1 4.217V4a1 1 0 0 1 1-1h12a1 1 0 0 1 1 1v.217l-7 4.2-7-4.2Z"></path><path d="M14.247 14.269c1.01 0 1.587-.857 1.587-2.025v-.21C15.834 10.43 14.64 9 12.52 9h-.035C10.42 9 9 10.36 9 12.432v.214C9 14.82 10.438 16 12.358 16h.044c.594 0 1.018-.074 1.237-.175v-.73c-.245.11-.673.18-1.18.18h-.044c-1.334 0-2.571-.788-2.571-2.655v-.157c0-1.657 1.058-2.724 2.64-2.724h.04c1.535 0 2.484 1.05 2.484 2.326v.118c0 .975-.324 1.39-.639 1.39-.232 0-.41-.148-.41-.42v-2.19h-.906v.569h-.03c-.084-.298-.368-.63-.954-.63-.778 0-1.259.555-1.259 1.4v.528c0 .892.49 1.434 1.26 1.434.471 0 .896-.227 1.014-.643h.043c.118.42.617.648 1.12.648Zm-2.453-1.588v-.227c0-.546.227-.791.573-.791.297 0 .572.192.572.708v.367c0 .573-.253.744-.564.744-.354 0-.581-.215-.581-.8Z"></path></svg><svg fill="none" class="bi bi-pencil" viewBox="0 0 16 16" id="pencil"><path d="M12.146.146a.5.5 0 0 1 .708 0l3 3a.5.5 0 0 1 0 .708l-10 10a.5.5 0 0 1-.168.11l-5 2a.5.5 0 0 1-.65-.65l2-5a.5.5 0 0 1 .11-.168l10-10zM11.207 2.5 13.5 4.793 14.793 3.5 12.5 1.207 11.207 2.5zm1.586 3L10.5 3.207 4 9.707V10h.5a.5.5 0 0 1 .5.5v.5h.5a.5.5 0 0 1 .5.5v.5h.293l6.5-6.5zm-9.761 5.175-.106.106-1.528 3.821 3.821-1.528.106-.106A.5.5 0 0 1 5 12.5V12h-.5a.5.5 0 0 1-.5-.5V11h-.5a.5.5 0 0 1-.468-.325z" fill="currentColor"></path></svg><svg viewBox="0 0 64 64" fill="none" id="react"><path d="M50.258 1.3a.998.998 0 0 0-.649.407L48.451 3.34a1 1 0 0 0 1.631 1.158l1.158-1.63a1 1 0 0 0-.982-1.567zM20.576 5.179c-1.287-.04-2.502.22-3.576.84-1.718.991-2.82 2.762-3.375 4.927-.555 2.165-.602 4.764-.219 7.668.126.952.315 1.948.533 2.961a37.5 37.5 0 0 0-2.828 1.016c-2.707 1.12-4.933 2.46-6.53 4.023C2.981 28.176 2 30.017 2 32c0 1.983.982 3.824 2.58 5.387 1.598 1.563 3.824 2.903 6.531 4.023a37.5 37.5 0 0 0 2.828 1.016 37.452 37.452 0 0 0-.533 2.959c-.383 2.904-.336 5.503.219 7.668S15.282 56.989 17 57.98c1.718.992 3.803 1.062 5.955.46 2.153-.603 4.427-1.86 6.75-3.645A37.472 37.472 0 0 0 32 52.854a37.505 37.505 0 0 0 2.295 1.94c2.323 1.785 4.597 3.043 6.75 3.645 2.152.603 4.237.533 5.955-.459 1.718-.991 2.82-2.762 3.375-4.927.555-2.165.602-4.764.219-7.668a37.51 37.51 0 0 0-.533-2.957c.985-.317 1.941-.651 2.828-1.018 2.707-1.12 4.933-2.46 6.53-4.023C61.019 35.824 62 33.983 62 32c0-1.983-.982-3.824-2.58-5.387-1.598-1.563-3.824-2.903-6.531-4.023-.887-.367-1.843-.7-2.828-1.018.218-1.011.407-2.006.533-2.957.383-2.904.336-5.503-.219-7.668S48.718 7.011 47 6.02c-1.718-.992-3.803-1.062-5.955-.46-2.153.603-4.427 1.86-6.75 3.645A37.504 37.504 0 0 0 32 11.146a37.521 37.521 0 0 0-2.295-1.943c-2.323-1.784-4.597-3.042-6.75-3.644a10.003 10.003 0 0 0-2.379-.381zm33.326.232a.996.996 0 0 0-.38.111l-1.772.928a1.002 1.002 0 0 0 .465 1.887c.156 0 .315-.036.463-.113l1.771-.93a1 1 0 0 0-.547-1.883zM20.53 7.172c.582.02 1.211.125 1.887.314 1.802.504 3.887 1.63 6.068 3.305a34.96 34.96 0 0 1 2.057 1.73c-1.978 1.965-3.941 4.28-5.822 6.868-3.183.334-6.167.878-8.858 1.609-.192-.909-.359-1.8-.47-2.646-.36-2.727-.293-5.096.171-6.909.465-1.812 1.286-3.028 2.438-3.693.72-.416 1.56-.612 2.53-.578zm22.94.002c.97-.034 1.81.162 2.531.578 1.152.665 1.973 1.88 2.438 3.691.464 1.813.53 4.184.17 6.91a34.88 34.88 0 0 1-.47 2.645c-2.69-.731-5.674-1.275-8.857-1.61-1.88-2.588-3.844-4.9-5.822-6.865a34.94 34.94 0 0 1 2.055-1.73c2.18-1.675 4.266-2.803 6.068-3.307a8.09 8.09 0 0 1 1.887-.312zm11.953 3.336-1.979.297a1.001 1.001 0 0 0 .297 1.978l1.979-.297a1 1 0 0 0 .842-1.136 1.01 1.01 0 0 0-1.14-.842zM32 13.896a53.132 53.132 0 0 1 4.62 5.268A70.841 70.841 0 0 0 32 19c-1.576 0-3.111.066-4.621.164A53.116 53.116 0 0 1 32 13.896zm21.832 1.71a1 1 0 1 0-.115 1.996l1.996.115.058.002a1.001 1.001 0 0 0 .057-1.998l-1.996-.116zM32 21c2.127 0 4.193.104 6.186.287a67.702 67.702 0 0 1 3.34 5.213A67.687 67.687 0 0 1 44.37 32a67.686 67.686 0 0 1-2.846 5.5 67.702 67.702 0 0 1-3.34 5.213A67.697 67.697 0 0 1 32 43c-2.127 0-4.193-.104-6.186-.287a67.658 67.658 0 0 1-3.341-5.213 67.686 67.686 0 0 1-2.844-5.502 67.717 67.717 0 0 1 2.844-5.498 67.658 67.658 0 0 1 3.341-5.213A67.697 67.697 0 0 1 32 21zm-8.807.58a70.85 70.85 0 0 0-2.453 3.92 70.848 70.848 0 0 0-2.166 4.082 53.108 53.108 0 0 1-2.252-6.633 53.098 53.098 0 0 1 6.871-1.369zm17.612 0c2.46.33 4.768.795 6.873 1.37a53.128 53.128 0 0 1-2.252 6.634 70.827 70.827 0 0 0-2.168-4.084 70.899 70.899 0 0 0-2.453-3.92zm-26.403 1.945c.712 2.696 1.734 5.552 3.036 8.475-1.302 2.923-2.324 5.779-3.036 8.475a34.929 34.929 0 0 1-2.525-.914c-2.541-1.052-4.561-2.296-5.898-3.604C4.64 34.649 4 33.33 4 32s.641-2.649 1.979-3.957c1.337-1.308 3.357-2.552 5.898-3.604a34.929 34.929 0 0 1 2.525-.914zm35.194 0a34.94 34.94 0 0 1 2.527.914c2.541 1.052 4.561 2.296 5.898 3.604C59.36 29.351 60 30.67 60 32s-.641 2.649-1.979 3.957c-1.337 1.308-3.357 2.552-5.898 3.604-.788.326-1.642.626-2.525.914-.712-2.696-1.736-5.551-3.037-8.475 1.3-2.923 2.323-5.78 3.035-8.475zM32 25c-3.854 0-7 3.146-7 7s3.146 7 7 7 7-3.146 7-7-3.146-7-7-7zm0 2c2.773 0 5 2.227 5 5s-2.227 5-5 5-5-2.227-5-5 2.227-5 5-5zm13.426 7.416a53.128 53.128 0 0 1 2.252 6.635 53.101 53.101 0 0 1-6.873 1.369 70.899 70.899 0 0 0 2.453-3.92 70.826 70.826 0 0 0 2.168-4.084zm-26.852.002A70.873 70.873 0 0 0 20.74 38.5a70.85 70.85 0 0 0 2.453 3.92 53.098 53.098 0 0 1-6.87-1.37 53.108 53.108 0 0 1 2.251-6.632zm-2.713 8.584c2.69.731 5.675 1.275 8.858 1.61 1.88 2.588 3.844 4.902 5.822 6.867-.69.62-1.38 1.208-2.057 1.728-2.18 1.675-4.266 2.803-6.068 3.307-1.802.504-3.264.401-4.416-.264-1.152-.665-1.975-1.881-2.44-3.693-.464-1.813-.53-4.184-.17-6.91.112-.847.279-1.736.471-2.645zm32.278 0c.192.908.357 1.798.468 2.644.36 2.727.295 5.098-.17 6.91-.464 1.813-1.285 3.027-2.437 3.692s-2.614.77-4.416.266c-1.802-.504-3.89-1.632-6.07-3.307a34.938 34.938 0 0 1-2.055-1.73c1.978-1.965 3.941-4.277 5.822-6.866 3.183-.334 6.167-.878 8.858-1.609zm-39.528.715a.996.996 0 0 0-1.123.86.998.998 0 0 0 .86 1.122l1.982.264a1 1 0 0 0 .264-1.982l-1.983-.264zm18.768 1.119c1.51.098 3.045.164 4.621.164 1.575 0 3.11-.066 4.62-.164A53.13 53.13 0 0 1 32 50.104a53.119 53.119 0 0 1-4.621-5.268zM10.16 48.818l-1.998.069a1 1 0 0 0 .031 1.998h.036l1.998-.069a.998.998 0 0 0 .966-1.03c-.018-.554-.482-1.005-1.033-.968zm.865 4.694a.98.98 0 0 0-.394.04l-1.914.585a1 1 0 0 0 .584 1.912l1.914-.584a1 1 0 0 0-.19-1.953zm2.12 4.04a.998.998 0 0 0-.727.237L10.9 59.094a1 1 0 0 0 .653 1.758c.23 0 .462-.08.65-.243l1.518-1.302a.996.996 0 0 0-.576-1.754z" fill="currentColor"></path></svg><svg fill="none" id="telegram" viewBox="0 0 30 30"><path fill-rule="evenodd" clip-rule="evenodd" d="M30 15c0 8.284-6.716 15-15 15-8.284 0-15-6.716-15-15C0 6.716 6.716 0 15 0c8.284 0 15 6.716 15 15Zm-14.463-3.926c-1.458.607-4.374 1.862-8.747 3.768-.71.282-1.082.558-1.116.828-.057.457.514.637 1.293.881l.328.105c.766.249 1.796.54 2.332.552.485.01 1.028-.19 1.626-.601 4.086-2.758 6.195-4.152 6.327-4.182.094-.022.223-.048.311.03s.079.225.07.265c-.057.241-2.3 2.328-3.462 3.407-.362.337-.619.576-.671.63-.118.122-.238.238-.353.349-.711.686-1.245 1.2.03 2.04.612.404 1.102.737 1.591 1.07.534.364 1.067.727 1.756 1.179.175.115.343.234.507.35.621.444 1.18.842 1.87.778.4-.037.814-.413 1.024-1.538.497-2.656 1.474-8.412 1.7-10.784a2.643 2.643 0 0 0-.025-.59.632.632 0 0 0-.214-.407c-.18-.145-.457-.176-.581-.174-.564.01-1.43.311-5.595 2.044Z" fill="currentColor"></path></svg><svg viewBox="0 0 256 256" fill="none" id="vue"><g stroke-miterlimit="10" font-family="none" font-weight="none" font-size="none" text-anchor="none" style="mix-blend-mode:normal"><path d="m127.93 90.667-28.015-48H15.86l112.07 192L240 42.667h-84.053z" fill="currentColor"></path><path d="m155.947 42.667-28.016 48-28.016-48h-40.47L127.931 160l68.485-117.333z" fill="#455a64"></path></g></svg></svg>