<svg width="30" height="30" viewBox="0 0 30 30" fill="none" xmlns="http://www.w3.org/2000/svg">
<path fill-rule="evenodd" clip-rule="evenodd" d="M15.0124 0C6.71094 0 0 6.875 0 15.3803C0 22.1791 4.29993 27.9341 10.2651 29.9709C11.0109 30.1241 11.284 29.64 11.284 29.2328C11.284 28.8762 11.2595 27.6541 11.2595 26.3806C7.08337 27.2975 6.21374 24.5472 6.21374 24.5472C5.54261 22.7647 4.54822 22.3066 4.54822 22.3066C3.18139 21.3644 4.64778 21.3644 4.64778 21.3644C6.16396 21.4662 6.95953 22.9431 6.95953 22.9431C8.30148 25.2856 10.4639 24.6237 11.3338 24.2162C11.458 23.2231 11.8559 22.5356 12.2784 22.1537C8.94771 21.7972 5.44336 20.4731 5.44336 14.5653C5.44336 12.8847 6.0395 11.5097 6.98412 10.4403C6.83508 10.0584 6.31299 8.47938 7.13346 6.36594C7.13346 6.36594 8.40104 5.95844 11.2592 7.94469C12.4828 7.60802 13.7448 7.43675 15.0124 7.43531C16.28 7.43531 17.5721 7.61375 18.7654 7.94469C21.6238 5.95844 22.8914 6.36594 22.8914 6.36594C23.7118 8.47938 23.1894 10.0584 23.0404 10.4403C24.0099 11.5097 24.5815 12.8847 24.5815 14.5653C24.5815 20.4731 21.0771 21.7716 17.7215 22.1537C18.2685 22.6375 18.7405 23.5541 18.7405 25.0056C18.7405 27.0681 18.7159 28.7234 18.7159 29.2325C18.7159 29.64 18.9894 30.1241 19.7349 29.9712C25.7 27.9337 29.9999 22.1791 29.9999 15.3803C30.0245 6.875 23.289 0 15.0124 0Z" fill="currentColor"/>
</svg>
