<svg id="svg" version="1.1" xmlns="http://www.w3.org/2000/svg" xmlns:xlink="http://www.w3.org/1999/xlink" width="400" height="400" viewBox="0, 0, 400,400">
	<g id="svgg">
		<path id="path0" d="M178.322 1.900 C 178.166 5.677,178.156 8.297,178.072 68.600 C 178.019 107.361,177.849 129.580,177.608 129.200 C 177.400 128.870,177.043 128.578,176.815 128.550 C 176.587 128.523,176.265 128.458,176.100 128.406 C 175.935 128.354,174.900 128.286,173.800 128.256 L 171.800 128.200 171.744 126.200 C 171.714 125.100,171.648 124.020,171.597 123.800 C 171.547 123.580,171.525 123.270,171.549 123.112 C 171.631 122.565,170.193 122.126,168.000 122.029 C 165.325 121.910,165.591 122.220,165.487 119.108 C 165.419 117.085,164.400 114.147,164.400 115.974 C 164.400 116.233,164.065 116.253,163.479 116.030 C 162.973 115.838,161.881 115.680,161.053 115.680 C 159.179 115.680,159.288 115.824,159.171 113.200 C 159.024 109.875,158.818 109.655,155.730 109.518 L 153.068 109.400 153.021 106.805 C 152.965 103.735,152.370 103.216,148.900 103.206 L 146.800 103.200 146.767 101.500 C 146.685 97.342,146.481 97.083,143.236 97.022 C 140.307 96.968,140.341 97.002,140.302 94.134 C 140.263 91.319,139.893 90.965,136.856 90.842 C 134.138 90.732,134.401 91.028,134.291 87.958 C 134.187 85.048,133.880 84.512,132.366 84.602 C 131.775 84.637,130.512 84.561,129.559 84.433 L 127.826 84.200 127.928 82.200 C 128.002 80.737,127.920 80.361,127.621 80.800 C 127.372 81.166,127.210 81.214,127.206 80.924 C 127.203 80.662,127.400 80.324,127.643 80.173 C 128.402 79.705,125.952 78.040,125.008 78.383 C 122.902 79.148,121.487 78.116,121.694 75.964 C 121.799 74.871,121.728 73.879,121.536 73.760 C 121.344 73.642,121.285 73.386,121.405 73.192 C 121.761 72.616,120.347 72.133,118.000 72.029 C 115.331 71.910,115.617 72.242,115.499 69.118 C 115.383 66.060,115.188 65.816,112.800 65.751 C 108.870 65.644,109.200 65.896,109.200 63.000 C 109.200 61.533,109.026 60.400,108.800 60.400 C 108.580 60.400,108.400 60.209,108.400 59.976 C 108.400 59.743,108.625 59.680,108.900 59.835 C 109.300 60.061,109.300 60.010,108.900 59.579 C 108.625 59.282,108.399 58.671,108.399 58.220 C 108.395 56.036,105.195 53.456,103.363 54.159 C 103.020 54.291,102.864 54.220,103.003 53.995 C 103.137 53.778,103.072 53.600,102.859 53.600 C 102.645 53.600,102.343 52.844,102.187 51.921 C 101.817 49.733,100.267 48.183,98.079 47.813 C 97.156 47.657,96.400 47.355,96.400 47.141 C 96.400 46.928,96.222 46.863,96.005 46.997 C 95.780 47.136,95.709 46.980,95.841 46.637 C 96.540 44.816,93.975 41.616,91.800 41.595 C 90.485 41.583,89.997 41.036,89.486 39.006 C 88.914 36.737,87.491 35.476,85.451 35.430 C 84.697 35.414,84.162 35.265,84.263 35.100 C 84.364 34.935,84.212 34.799,83.924 34.798 C 83.601 34.797,83.371 34.231,83.323 33.325 C 83.213 31.213,82.063 29.900,79.758 29.255 C 78.681 28.954,77.743 28.558,77.674 28.376 C 77.605 28.194,77.308 28.137,77.015 28.250 C 76.722 28.362,76.239 28.150,75.941 27.778 C 75.379 27.076,73.117 24.788,71.902 23.693 C 71.518 23.347,71.302 22.964,71.423 22.843 C 71.544 22.722,71.769 22.819,71.922 23.058 C 72.075 23.297,72.594 23.615,73.075 23.765 C 74.125 24.093,76.400 26.589,76.400 27.414 C 76.400 27.736,76.603 28.000,76.850 28.000 C 78.486 28.000,76.099 23.816,74.114 23.205 C 73.281 22.949,72.330 22.636,72.000 22.509 C 70.740 22.026,70.192 22.064,69.507 22.684 C 69.118 23.036,68.800 23.131,68.800 22.895 C 68.800 22.660,69.025 22.367,69.300 22.246 C 69.575 22.124,68.900 22.059,67.800 22.100 L 65.800 22.174 65.567 20.441 C 65.439 19.488,65.363 18.225,65.398 17.634 C 65.488 16.120,64.952 15.813,62.042 15.709 C 58.972 15.599,59.268 15.862,59.158 13.144 C 59.035 10.107,58.681 9.737,55.866 9.698 C 53.008 9.659,53.046 9.696,52.800 6.677 C 52.532 3.388,52.025 3.126,46.262 3.291 C 42.531 3.398,41.846 3.523,41.362 4.184 C 40.783 4.977,40.472 299.337,41.049 301.487 C 42.049 305.217,58.000 302.288,58.000 298.375 C 58.000 297.297,59.110 296.400,60.441 296.400 C 63.506 296.400,64.882 294.945,65.295 291.265 C 65.392 290.402,65.596 290.325,67.932 290.265 C 70.982 290.187,71.673 289.532,71.586 286.800 C 71.501 284.108,71.493 284.123,72.833 284.319 C 73.510 284.419,74.455 284.302,74.933 284.059 C 75.410 283.817,76.141 283.659,76.557 283.709 C 76.973 283.759,77.365 283.571,77.427 283.290 C 77.489 283.010,77.448 282.965,77.337 283.190 C 77.225 283.416,76.967 283.600,76.763 283.600 C 76.560 283.600,76.611 283.252,76.877 282.826 C 77.143 282.400,77.502 282.139,77.675 282.246 C 77.849 282.354,77.895 281.667,77.778 280.721 C 77.486 278.352,77.810 278.068,81.010 277.890 C 83.347 277.759,83.781 277.626,83.682 277.067 C 83.618 276.700,83.767 276.400,84.014 276.400 C 84.305 276.400,84.371 275.978,84.200 275.200 C 83.621 272.563,84.198 271.708,86.534 271.741 C 89.351 271.782,90.215 270.932,90.349 267.984 C 90.469 265.344,90.167 265.596,93.344 265.489 C 94.804 265.440,95.999 265.254,95.999 265.076 C 96.000 264.898,96.180 264.864,96.400 265.000 C 96.620 265.136,96.800 265.077,96.800 264.868 C 96.800 264.660,97.410 264.375,98.155 264.235 C 100.087 263.872,101.359 262.396,102.130 259.621 C 102.742 257.422,102.800 252.408,102.800 201.973 C 102.800 158.044,102.902 146.767,103.299 146.900 C 103.573 146.991,103.899 147.681,104.024 148.433 C 104.475 151.143,105.178 151.749,108.800 152.549 C 109.729 152.754,109.802 152.943,109.825 155.196 C 109.858 158.279,110.322 158.748,113.651 159.059 L 116.257 159.302 116.083 161.405 C 115.850 164.219,116.843 165.341,119.386 165.137 C 121.518 164.966,121.799 165.268,122.243 168.211 C 122.660 170.977,123.424 171.585,126.500 171.594 L 128.400 171.600 128.406 173.500 C 128.415 176.576,129.023 177.340,131.789 177.757 C 134.732 178.201,135.034 178.482,134.863 180.614 C 134.658 183.161,135.751 184.113,138.673 183.935 L 140.876 183.800 141.047 185.984 C 141.306 189.297,144.452 191.651,146.734 190.241 C 146.940 190.114,147.184 191.103,147.282 192.465 C 147.500 195.472,148.384 196.400,151.030 196.400 C 153.171 196.400,153.794 197.268,153.386 199.681 C 153.227 200.625,153.264 201.207,153.476 201.076 C 153.676 200.953,154.057 201.200,154.323 201.626 C 154.589 202.052,154.640 202.400,154.437 202.400 C 154.233 202.400,153.975 202.215,153.863 201.990 C 153.751 201.764,153.707 201.810,153.763 202.090 C 153.820 202.370,154.392 202.628,155.033 202.662 C 159.315 202.888,160.867 204.475,159.723 207.456 C 159.561 207.879,159.622 208.033,159.887 207.870 C 160.408 207.548,161.307 208.550,160.897 208.996 C 160.733 209.173,161.039 209.210,161.575 209.077 C 164.036 208.468,165.952 209.188,165.717 210.632 C 165.598 211.365,165.647 212.288,165.826 212.683 C 166.005 213.077,166.162 213.760,166.175 214.200 C 166.193 214.785,166.441 214.974,167.100 214.905 C 167.595 214.852,168.000 215.004,168.000 215.242 C 168.000 215.530,168.652 215.585,169.944 215.408 L 171.888 215.140 172.133 216.670 C 172.267 217.512,172.276 218.587,172.153 219.059 C 171.798 220.414,172.653 221.611,173.914 221.526 C 174.511 221.486,175.720 221.487,176.600 221.527 L 178.200 221.600 178.200 308.100 C 178.200 355.675,178.308 395.050,178.440 395.600 L 178.681 396.600 187.121 396.600 C 196.762 396.600,196.322 396.763,196.666 393.072 L 196.916 390.400 198.758 390.332 C 199.771 390.294,201.045 390.249,201.590 390.232 C 202.656 390.198,202.874 389.545,202.959 386.135 C 203.003 384.342,204.523 383.614,206.953 384.224 C 207.607 384.388,207.968 384.261,208.143 383.804 C 208.281 383.444,208.535 383.236,208.708 383.343 C 208.880 383.450,209.075 382.337,209.141 380.871 C 209.207 379.405,209.292 378.177,209.330 378.142 C 209.458 378.024,214.978 377.605,216.285 377.614 C 219.495 377.636,221.439 375.749,221.114 372.928 C 221.033 372.228,221.110 371.744,221.284 371.852 C 221.458 371.959,221.601 371.902,221.601 371.724 C 221.602 371.546,222.654 371.400,223.940 371.400 C 226.982 371.400,227.478 370.943,227.812 367.829 L 228.082 365.307 229.901 365.513 C 231.322 365.673,231.650 365.604,231.400 365.200 C 231.158 364.809,231.327 364.745,232.095 364.938 C 233.271 365.233,234.147 364.449,233.762 363.446 C 233.624 363.085,233.701 362.560,233.934 362.279 C 234.168 361.998,234.348 360.245,234.336 358.384 C 234.200 337.706,234.471 278.800,234.703 278.800 C 234.869 278.800,234.943 279.593,234.866 280.563 C 234.659 283.161,235.760 284.152,238.595 283.917 L 240.698 283.743 240.941 286.349 C 241.244 289.593,241.682 290.034,244.857 290.290 L 247.400 290.496 247.400 292.880 C 247.400 295.843,248.107 296.559,250.754 296.274 C 251.845 296.157,252.299 296.219,251.954 296.437 C 251.541 296.699,251.629 296.789,252.300 296.794 C 252.963 296.798,253.202 297.037,253.206 297.700 C 253.211 298.371,253.301 298.459,253.563 298.046 C 253.781 297.701,253.843 298.155,253.726 299.246 C 253.441 301.893,254.157 302.600,257.120 302.600 L 259.504 302.600 259.710 305.143 C 259.966 308.318,260.407 308.756,263.651 309.059 L 266.257 309.302 266.083 311.405 C 265.850 314.219,266.843 315.341,269.386 315.137 C 271.538 314.965,271.813 315.274,272.116 318.205 C 272.420 321.158,272.960 321.600,276.264 321.600 C 278.341 321.600,278.735 321.705,278.543 322.205 C 277.487 324.956,279.392 327.491,282.658 327.681 L 284.715 327.800 284.884 330.112 C 285.097 333.025,285.693 333.630,288.663 333.949 L 291.000 334.200 290.909 336.200 C 290.859 337.300,290.925 337.959,291.054 337.664 C 291.222 337.284,291.425 337.397,291.753 338.056 C 292.008 338.567,292.662 339.210,293.208 339.486 C 293.938 339.856,294.015 339.990,293.500 339.994 C 293.115 339.997,292.440 339.640,292.000 339.200 C 291.366 338.566,291.200 338.527,291.200 339.010 C 291.200 339.894,293.069 340.469,295.002 340.179 C 296.987 339.881,297.867 341.171,297.395 343.688 C 297.047 345.540,297.986 346.554,299.700 346.178 C 300.530 345.996,300.816 346.051,300.626 346.357 C 300.446 346.649,300.837 346.800,301.776 346.800 C 303.141 346.800,303.200 346.859,303.200 348.224 C 303.200 349.163,303.351 349.554,303.643 349.374 C 303.949 349.184,304.004 349.470,303.822 350.300 C 303.446 352.014,304.460 352.953,306.312 352.605 C 308.829 352.133,310.119 353.013,309.821 354.998 C 309.531 356.931,310.106 358.800,310.990 358.800 C 311.473 358.800,311.434 358.634,310.800 358.000 C 310.360 357.560,310.003 356.885,310.006 356.500 C 310.010 355.985,310.144 356.062,310.514 356.792 C 310.790 357.338,311.433 357.992,311.944 358.247 C 312.611 358.579,312.721 358.779,312.336 358.958 C 312.041 359.095,312.622 359.124,313.626 359.021 C 315.704 358.810,316.663 360.187,316.166 362.671 C 315.826 364.370,316.834 365.305,318.639 364.966 C 319.524 364.800,320.000 364.867,320.000 365.155 C 320.000 365.400,320.523 365.600,321.162 365.600 C 322.288 365.600,322.319 365.652,322.159 367.300 C 322.069 368.235,322.109 368.749,322.250 368.443 C 322.425 368.060,322.670 368.279,323.036 369.150 C 323.328 369.845,323.980 370.579,324.484 370.781 C 325.175 371.059,325.228 371.156,324.700 371.175 C 324.315 371.189,323.640 370.840,323.200 370.400 C 322.362 369.562,322.143 369.776,322.793 370.800 C 323.073 371.242,323.801 371.377,325.559 371.312 C 328.185 371.215,329.208 372.436,328.584 374.922 C 328.275 376.151,328.989 377.600,329.903 377.600 C 330.445 377.600,330.402 377.477,329.689 376.977 C 329.200 376.635,328.800 376.185,328.800 375.977 C 328.800 375.770,329.160 375.960,329.600 376.400 C 330.040 376.840,330.591 377.200,330.824 377.200 C 331.057 377.200,331.125 377.397,330.977 377.638 C 330.791 377.938,331.316 378.032,332.653 377.938 L 334.600 377.800 334.851 380.137 C 335.170 383.107,335.776 383.703,338.688 383.917 L 341.000 384.087 341.102 386.116 C 341.259 389.253,344.485 391.631,346.715 390.253 C 347.107 390.011,347.194 390.552,347.192 393.217 C 347.190 396.585,347.198 396.588,356.443 396.686 C 361.803 396.743,364.729 396.625,365.074 396.338 C 365.503 395.983,365.597 360.379,365.598 197.952 L 365.599 -0.000 359.400 -0.000 L 353.200 0.000 353.200 1.600 C 353.200 3.177,353.179 3.200,351.700 3.228 C 347.437 3.306,347.126 3.541,347.024 6.763 C 346.930 9.726,346.996 9.659,344.134 9.698 C 341.319 9.737,340.965 10.107,340.842 13.144 C 340.737 15.751,340.766 15.701,339.317 15.695 C 338.702 15.693,337.863 15.868,337.452 16.085 C 336.964 16.342,336.788 16.343,336.946 16.087 C 337.091 15.853,336.666 15.741,335.895 15.810 C 335.183 15.873,334.629 16.077,334.665 16.263 C 334.701 16.448,334.083 16.635,333.291 16.677 C 331.269 16.785,329.896 17.955,329.294 20.086 L 328.785 21.888 326.460 22.131 C 322.620 22.532,322.262 22.918,322.219 26.703 C 322.197 28.651,321.675 29.000,319.416 28.577 C 317.317 28.183,315.829 29.245,316.160 30.901 C 316.631 33.256,315.715 34.739,313.936 34.501 C 312.870 34.358,312.400 34.446,312.400 34.791 C 312.400 35.117,312.066 35.203,311.425 35.042 C 310.155 34.723,309.887 35.219,309.765 38.105 C 309.645 40.979,309.736 40.883,307.058 40.947 C 305.859 40.976,304.969 41.147,305.079 41.327 C 305.190 41.506,304.947 41.596,304.540 41.527 C 303.966 41.428,303.830 41.611,303.933 42.344 C 304.008 42.879,303.897 43.184,303.678 43.048 C 303.445 42.904,303.312 43.642,303.345 44.904 L 303.400 47.000 301.400 47.064 C 297.198 47.198,297.101 47.293,297.126 51.249 L 297.138 53.097 294.942 53.355 C 293.734 53.497,292.596 53.521,292.415 53.409 C 292.233 53.297,291.976 53.485,291.845 53.828 C 291.713 54.170,291.469 54.367,291.303 54.264 C 291.136 54.162,290.960 55.256,290.911 56.695 C 290.803 59.861,291.142 59.544,287.719 59.684 C 285.470 59.776,284.961 59.907,285.293 60.309 C 285.608 60.691,285.559 60.759,285.095 60.581 C 284.622 60.399,284.486 60.609,284.518 61.472 C 284.541 62.092,284.524 63.320,284.480 64.200 L 284.400 65.800 281.800 65.786 C 280.370 65.778,279.200 65.923,279.200 66.109 C 279.200 66.295,279.036 66.346,278.835 66.222 C 278.634 66.098,278.520 66.451,278.581 67.008 C 278.642 67.564,278.528 68.121,278.327 68.245 C 278.126 68.369,278.081 69.265,278.226 70.235 L 278.491 72.000 276.545 72.033 C 272.011 72.111,272.118 72.011,272.033 76.289 C 271.997 78.147,270.323 79.152,268.669 78.311 C 268.267 78.106,267.637 78.058,267.269 78.205 C 266.901 78.351,266.150 78.554,265.600 78.655 C 261.641 79.380,260.751 80.062,260.193 82.800 C 259.822 84.619,259.323 85.200,258.131 85.200 C 255.856 85.200,254.496 86.607,253.839 89.642 C 253.634 90.592,253.392 90.708,251.118 90.945 C 248.027 91.269,247.462 91.812,247.204 94.710 L 247.000 97.000 244.710 97.204 C 241.807 97.462,241.269 98.025,240.943 101.140 L 240.680 103.659 238.689 103.385 C 237.571 103.231,236.793 103.265,236.915 103.462 C 237.034 103.655,236.684 104.024,236.137 104.283 C 235.244 104.704,235.196 104.686,235.671 104.111 C 236.117 103.570,236.106 103.502,235.600 103.679 C 235.241 103.804,235.030 104.311,235.075 104.944 C 235.117 105.525,234.982 106.000,234.775 106.000 C 234.544 106.000,234.400 92.833,234.400 71.800 C 234.400 44.710,234.296 37.599,233.900 37.594 C 233.534 37.589,233.524 37.509,233.862 37.293 C 234.459 36.914,234.282 30.222,233.655 29.467 C 233.409 29.170,233.307 28.826,233.430 28.703 C 233.553 28.580,233.416 28.498,233.127 28.519 C 232.837 28.541,231.455 28.407,230.056 28.222 L 227.512 27.887 227.774 25.908 C 227.919 24.820,227.894 24.002,227.718 24.091 C 227.374 24.265,225.580 22.553,225.838 22.296 C 225.924 22.210,223.655 22.153,220.797 22.170 L 215.600 22.200 215.564 21.200 C 215.544 20.650,215.499 19.347,215.465 18.305 C 215.392 16.102,215.169 15.946,211.874 15.791 C 209.040 15.658,209.152 15.768,209.089 13.064 C 209.060 11.848,208.914 10.930,208.764 11.023 C 208.613 11.115,208.515 10.878,208.545 10.496 C 208.586 9.984,208.283 9.791,207.400 9.767 C 202.533 9.633,202.921 9.800,202.606 7.700 C 202.067 4.109,201.173 3.620,194.685 3.372 L 190.600 3.215 190.477 1.608 L 190.354 0.000 184.377 0.000 L 178.400 0.000 178.322 1.900 M194.841 11.205 C 196.652 11.708,198.270 13.094,198.596 14.421 C 198.845 15.434,202.692 18.133,203.887 18.133 C 204.824 18.133,206.400 19.916,206.400 20.975 C 206.400 22.389,208.798 23.894,211.400 24.114 C 214.026 24.336,214.611 24.628,214.705 25.761 C 214.841 27.398,215.556 28.800,216.255 28.800 C 217.025 28.800,221.297 30.070,221.600 30.389 C 222.205 31.027,223.672 31.639,223.373 31.130 C 223.202 30.838,223.455 30.944,223.934 31.364 C 224.413 31.785,224.775 32.325,224.739 32.564 C 224.641 33.202,225.557 35.289,226.290 36.099 C 226.639 36.485,226.796 36.800,226.639 36.800 C 226.483 36.800,226.635 37.200,226.977 37.689 C 227.320 38.178,227.600 38.904,227.600 39.302 C 227.600 39.700,227.870 40.129,228.200 40.255 C 228.627 40.419,228.783 41.020,228.740 42.343 L 228.680 44.200 228.400 42.400 C 228.246 41.410,228.099 58.600,228.072 80.600 C 228.039 108.054,228.153 120.379,228.434 119.897 C 228.659 119.510,228.734 119.017,228.601 118.801 C 228.463 118.578,228.626 118.512,228.979 118.647 C 229.321 118.778,229.600 118.729,229.600 118.537 C 229.600 118.345,230.714 118.133,232.076 118.066 C 234.832 117.929,237.087 116.682,237.945 114.821 C 238.681 113.225,239.212 112.713,242.077 110.834 C 243.686 109.779,244.939 108.630,245.219 107.954 C 245.476 107.335,245.801 106.843,245.943 106.862 C 246.672 106.956,247.300 106.767,247.060 106.526 C 246.622 106.088,249.275 103.600,250.180 103.600 C 251.122 103.600,252.699 102.043,253.827 100.000 C 254.773 98.287,255.304 97.916,257.578 97.383 C 259.250 96.991,259.384 96.857,259.819 95.154 C 260.364 93.016,260.931 91.905,261.436 91.988 C 263.396 92.310,266.400 90.623,266.400 89.200 C 266.400 88.594,266.668 87.876,266.996 87.604 C 267.323 87.332,267.499 86.960,267.386 86.777 C 267.273 86.594,268.256 86.232,269.572 85.974 C 272.315 85.434,272.996 84.828,273.332 82.628 C 273.644 80.596,274.292 79.989,276.445 79.717 C 278.660 79.437,279.474 78.729,279.800 76.800 C 280.118 74.919,280.973 74.108,282.800 73.955 C 284.961 73.774,286.356 72.617,286.653 70.760 C 286.929 69.036,288.326 67.600,289.729 67.600 C 291.265 67.600,293.141 65.935,293.412 64.331 C 293.664 62.838,294.828 61.703,296.424 61.395 C 297.527 61.183,299.200 59.378,299.200 58.400 C 299.200 57.379,300.899 55.600,301.874 55.600 C 303.097 55.600,306.398 53.089,306.399 52.158 C 306.400 51.201,308.090 49.200,308.898 49.200 C 309.560 49.200,312.909 45.843,312.578 45.511 C 312.310 45.243,314.570 43.452,315.001 43.590 C 315.152 43.639,315.758 43.215,316.349 42.649 C 316.939 42.083,318.014 41.414,318.736 41.162 C 319.615 40.856,319.976 40.515,319.829 40.132 C 319.708 39.816,319.768 39.657,319.962 39.776 C 320.156 39.896,320.427 39.546,320.565 38.997 C 320.703 38.449,321.002 38.000,321.231 38.000 C 321.460 38.000,321.519 38.208,321.362 38.462 C 321.185 38.748,321.252 38.815,321.538 38.638 C 321.792 38.481,322.000 38.118,322.000 37.830 C 322.000 37.166,323.618 35.085,323.909 35.375 C 324.028 35.495,324.386 35.378,324.704 35.114 C 325.021 34.851,325.520 34.600,325.813 34.557 C 326.632 34.437,328.373 33.058,328.387 32.519 C 328.433 30.764,330.529 29.019,333.172 28.536 C 334.632 28.269,334.800 28.071,334.800 26.621 C 334.800 24.444,338.713 21.957,340.450 23.031 C 340.840 23.272,342.000 20.630,342.000 19.502 C 342.000 18.651,343.403 16.822,343.842 17.100 C 345.498 18.148,348.400 16.351,348.400 14.276 C 348.400 12.989,349.197 11.418,349.868 11.382 C 350.050 11.372,350.869 11.230,351.686 11.067 C 353.780 10.647,356.058 11.874,357.383 14.134 L 358.400 15.870 358.400 197.315 C 358.400 328.160,358.277 379.352,357.958 380.880 C 357.449 383.323,353.697 387.480,352.442 386.991 C 352.089 386.853,351.624 386.709,351.410 386.670 C 350.925 386.583,350.000 385.748,350.000 385.398 C 350.000 385.255,349.460 384.598,348.800 383.938 C 348.140 383.278,347.490 382.302,347.357 381.769 C 347.223 381.236,346.953 380.800,346.757 380.800 C 346.560 380.800,346.400 380.530,346.400 380.200 C 346.400 379.870,346.190 379.600,345.933 379.600 C 345.677 379.600,345.588 379.479,345.737 379.330 C 346.046 379.020,344.052 377.607,343.300 377.603 C 342.702 377.599,341.670 376.602,340.670 375.062 C 340.255 374.423,339.706 374.027,339.397 374.146 C 339.042 374.282,338.764 373.945,338.594 373.174 C 338.452 372.525,337.964 371.795,337.510 371.552 C 336.452 370.986,334.829 369.149,334.813 368.500 C 334.806 368.225,334.440 367.978,334.000 367.950 C 332.670 367.867,332.480 367.815,332.133 367.436 C 331.937 367.222,332.047 367.193,332.400 367.366 C 332.889 367.605,332.885 367.562,332.375 367.130 C 332.032 366.838,331.632 366.285,331.488 365.900 C 331.343 365.515,330.994 365.199,330.713 365.197 C 330.431 365.196,329.752 364.521,329.204 363.697 C 328.042 361.952,327.582 361.564,327.057 361.888 C 326.843 362.021,326.808 361.910,326.978 361.635 C 327.172 361.322,326.966 361.064,326.406 360.918 C 325.747 360.745,325.664 360.606,326.066 360.351 C 326.498 360.077,326.500 360.011,326.076 360.006 C 325.788 360.003,325.664 359.820,325.800 359.600 C 325.936 359.380,325.823 359.200,325.548 359.200 C 324.632 359.200,322.442 357.423,322.208 356.489 C 322.081 355.982,321.802 355.675,321.588 355.807 C 321.375 355.939,321.200 355.756,321.200 355.400 C 321.200 355.044,321.053 354.844,320.873 354.955 C 320.694 355.066,320.232 354.623,319.847 353.971 C 319.462 353.319,319.011 352.870,318.844 352.973 C 318.396 353.250,313.555 348.183,313.902 347.800 C 314.066 347.620,313.963 347.609,313.673 347.776 C 313.324 347.978,313.072 347.797,312.926 347.240 C 312.806 346.778,312.474 346.400,312.189 346.400 C 311.548 346.400,309.600 344.137,309.600 343.392 C 309.600 343.050,309.281 342.907,308.746 343.010 C 308.276 343.101,307.995 343.071,308.122 342.945 C 308.420 342.647,307.488 341.631,307.121 341.853 C 306.967 341.945,306.912 341.657,306.998 341.211 C 307.093 340.716,306.941 340.400,306.608 340.400 C 305.863 340.400,303.600 338.452,303.600 337.811 C 303.600 337.526,303.222 337.194,302.760 337.074 C 302.225 336.934,302.029 336.676,302.222 336.365 C 302.391 336.090,302.357 335.979,302.144 336.111 C 301.935 336.240,300.978 335.548,300.017 334.573 C 299.056 333.598,298.119 332.800,297.935 332.800 C 297.751 332.800,297.600 332.607,297.600 332.371 C 297.600 331.760,296.812 331.079,295.200 330.297 C 294.430 329.924,294.036 329.614,294.324 329.609 C 294.611 329.604,294.045 328.809,293.064 327.842 C 291.535 326.335,290.698 324.996,290.620 323.933 C 290.609 323.787,290.450 323.517,290.267 323.333 C 289.946 323.013,289.802 322.968,288.700 322.844 C 288.309 322.800,288.312 322.717,288.714 322.461 C 289.062 322.241,288.706 321.979,287.614 321.652 C 286.726 321.386,286.000 320.965,286.000 320.717 C 286.000 320.469,285.904 320.363,285.786 320.481 C 285.668 320.598,285.019 320.178,284.344 319.547 C 283.668 318.916,282.854 318.400,282.534 318.400 C 282.214 318.400,282.069 318.212,282.211 317.982 C 282.353 317.753,282.258 317.311,282.000 317.000 C 281.742 316.689,281.647 316.247,281.789 316.018 C 281.931 315.788,281.842 315.600,281.592 315.600 C 281.342 315.600,280.386 314.812,279.469 313.849 C 278.551 312.885,277.284 311.976,276.653 311.829 C 276.022 311.682,275.606 311.461,275.729 311.338 C 275.944 311.122,275.674 310.702,274.400 309.267 C 274.070 308.896,273.405 308.086,272.921 307.469 C 272.438 306.852,271.394 305.831,270.600 305.200 C 269.807 304.570,269.167 303.952,269.179 303.827 C 269.251 303.060,269.157 302.812,268.828 302.900 C 268.359 303.026,265.539 300.424,265.756 300.065 C 265.844 299.919,265.665 299.568,265.358 299.284 C 264.915 298.874,264.800 298.872,264.800 299.273 C 264.800 299.551,264.495 299.333,264.123 298.789 C 263.751 298.245,263.256 297.668,263.023 297.506 C 262.790 297.344,262.762 297.209,262.960 297.206 C 263.158 297.203,262.588 296.670,261.694 296.022 C 260.800 295.374,259.937 294.430,259.776 293.924 C 259.400 292.739,257.261 290.600,256.076 290.224 C 255.570 290.063,254.626 289.200,253.978 288.306 C 253.330 287.412,252.797 286.842,252.794 287.040 C 252.791 287.238,252.656 287.210,252.494 286.977 C 252.332 286.744,251.755 286.249,251.211 285.877 C 250.667 285.505,250.449 285.200,250.727 285.200 C 251.128 285.200,251.126 285.085,250.716 284.642 C 250.432 284.335,250.081 284.156,249.935 284.244 C 249.576 284.461,246.974 281.641,247.100 281.172 C 247.188 280.843,246.940 280.749,246.173 280.821 C 246.048 280.833,245.403 280.158,244.740 279.321 C 244.076 278.485,243.235 277.632,242.871 277.427 C 241.962 276.914,240.829 275.510,240.813 274.876 C 240.806 274.588,240.643 274.450,240.450 274.569 C 240.258 274.688,239.773 274.349,239.373 273.816 C 238.973 273.284,238.496 272.941,238.313 273.054 C 238.130 273.167,238.006 273.111,238.037 272.930 C 238.182 272.100,237.906 271.731,236.629 271.044 C 235.875 270.637,235.045 269.792,234.786 269.166 C 234.526 268.539,233.973 267.918,233.557 267.786 C 233.141 267.654,232.800 267.292,232.800 266.982 C 232.800 266.246,231.179 265.201,229.421 264.805 C 227.223 264.309,226.991 264.893,227.547 269.514 C 228.083 273.967,228.122 344.180,227.592 351.071 C 227.188 356.337,225.256 359.200,222.109 359.200 C 221.868 359.200,221.553 359.875,221.410 360.700 C 221.065 362.690,219.965 363.955,218.333 364.237 C 215.455 364.734,214.899 365.147,214.623 366.986 C 214.313 369.056,213.529 369.840,211.400 370.211 C 209.042 370.622,208.179 371.333,207.622 373.323 C 207.086 375.234,206.205 375.949,204.200 376.096 C 202.676 376.208,200.800 377.847,200.800 379.066 C 200.800 379.580,200.609 380.000,200.376 380.000 C 200.143 380.000,200.046 380.150,200.159 380.334 C 200.375 380.683,197.938 382.000,197.078 382.000 C 196.247 382.000,193.600 384.412,193.600 385.168 C 193.600 385.558,193.240 386.293,192.800 386.800 C 192.360 387.307,192.000 387.583,192.000 387.412 C 192.000 387.242,191.724 387.331,191.386 387.612 C 190.715 388.169,190.297 387.836,188.517 385.324 C 186.356 382.276,186.435 385.461,186.415 300.308 C 186.398 229.281,186.334 221.431,185.756 219.708 C 185.075 217.676,184.098 216.292,183.574 216.616 C 183.399 216.724,183.141 216.628,183.000 216.401 C 182.860 216.174,182.083 215.624,181.273 215.178 C 180.463 214.733,179.193 213.928,178.451 213.391 C 177.709 212.853,176.960 212.501,176.787 212.608 C 176.401 212.846,174.400 210.529,174.400 209.844 C 174.400 209.168,172.390 207.296,170.782 206.475 C 170.055 206.104,169.266 205.440,169.030 205.000 C 168.793 204.560,168.420 204.068,168.200 203.906 C 167.933 203.710,167.933 203.610,168.200 203.604 C 168.984 203.588,165.699 200.946,164.172 200.365 C 162.954 199.901,162.530 199.474,162.209 198.387 C 161.984 197.624,161.506 196.550,161.147 196.000 C 160.787 195.450,160.245 194.460,159.942 193.800 C 159.582 193.016,158.907 192.438,157.995 192.133 C 157.228 191.876,156.643 191.476,156.696 191.245 C 156.749 191.013,156.420 190.625,155.966 190.382 C 154.701 189.705,153.741 188.617,153.475 187.558 C 153.343 187.031,152.956 186.240,152.616 185.800 L 151.998 185.000 152.242 185.800 C 152.376 186.240,152.125 186.041,151.684 185.358 C 151.180 184.577,150.425 184.025,149.649 183.870 C 148.970 183.734,148.019 183.168,147.535 182.611 C 147.051 182.055,146.373 181.594,146.028 181.587 C 144.742 181.561,143.806 180.433,143.631 178.697 C 143.614 178.531,143.163 178.015,142.629 177.551 C 142.095 177.086,141.444 176.190,141.183 175.558 C 140.921 174.927,140.571 174.494,140.404 174.598 C 140.237 174.701,139.773 174.349,139.373 173.816 C 138.973 173.284,138.496 172.941,138.313 173.054 C 138.130 173.167,138.006 173.111,138.037 172.930 C 138.182 172.100,137.906 171.731,136.629 171.044 C 135.875 170.637,135.041 169.783,134.777 169.144 C 134.512 168.505,134.111 167.869,133.886 167.730 C 133.631 167.572,133.598 167.688,133.800 168.038 C 133.978 168.347,133.556 168.071,132.862 167.425 C 131.571 166.224,131.238 165.729,132.062 166.238 C 132.327 166.402,132.416 166.349,132.270 166.114 C 132.131 165.889,131.495 165.488,130.856 165.223 C 130.217 164.959,129.363 164.125,128.956 163.371 C 128.269 162.094,127.900 161.818,127.070 161.963 C 126.889 161.994,126.833 161.870,126.946 161.687 C 127.059 161.504,126.716 161.027,126.184 160.627 C 125.651 160.227,125.312 159.742,125.431 159.550 C 125.550 159.357,125.412 159.194,125.124 159.187 C 124.490 159.171,123.086 158.038,122.573 157.129 C 122.368 156.765,121.570 155.954,120.800 155.326 C 120.030 154.698,119.340 153.918,119.267 153.594 C 119.194 153.269,118.613 152.553,117.976 152.002 C 117.338 151.451,116.732 150.550,116.629 150.000 C 115.976 146.525,115.994 146.550,113.859 146.230 C 111.724 145.910,110.846 145.312,110.582 143.999 C 109.780 140.020,109.936 140.243,107.648 139.806 C 105.118 139.322,104.206 138.370,103.822 135.810 C 103.585 134.228,103.356 133.892,102.070 133.236 C 100.883 132.630,100.330 131.919,99.276 129.643 C 97.680 126.200,97.142 125.984,93.233 127.217 C 90.750 128.001,90.436 128.209,90.612 128.954 C 91.143 131.206,91.660 134.060,91.995 136.600 C 92.206 138.196,92.372 163.865,92.382 196.291 L 92.400 253.182 91.448 253.805 C 90.296 254.560,88.865 258.183,88.230 261.955 C 88.091 262.785,86.786 263.600,85.598 263.600 C 84.229 263.600,82.400 265.500,82.400 266.922 C 82.400 267.901,81.239 269.557,80.500 269.630 C 78.249 269.853,75.617 271.296,75.569 272.333 C 75.495 273.945,75.172 274.656,74.137 275.482 C 73.529 275.968,72.958 276.292,72.869 276.203 C 72.420 275.753,68.680 278.225,68.342 279.196 C 68.109 279.863,67.457 280.464,66.601 280.799 C 65.849 281.095,65.141 281.576,65.029 281.868 C 64.917 282.161,64.549 282.400,64.213 282.400 C 63.876 282.400,63.600 282.610,63.600 282.867 C 63.600 283.123,63.508 283.242,63.396 283.129 C 62.650 282.383,59.071 284.383,58.936 285.622 C 58.857 286.340,58.592 287.168,58.347 287.463 C 58.102 287.758,58.059 288.006,58.251 288.014 C 59.145 288.050,56.402 289.192,54.834 289.436 C 52.522 289.796,50.744 288.857,49.402 286.567 L 48.400 284.858 48.400 153.413 C 48.400 23.259,48.408 21.953,49.191 20.418 C 51.506 15.879,57.128 15.884,57.799 20.425 C 58.112 22.542,58.974 23.267,61.397 23.448 C 63.244 23.586,64.400 24.706,64.400 26.355 C 64.400 28.165,65.377 29.094,67.602 29.400 C 69.845 29.709,70.222 30.147,70.350 32.600 C 70.454 34.596,71.343 35.522,73.401 35.779 C 75.363 36.023,76.800 37.507,76.800 39.291 C 76.800 41.033,77.806 42.000,79.618 42.000 C 81.684 42.000,82.757 43.003,83.042 45.200 C 83.334 47.450,83.750 47.866,86.000 48.158 C 88.197 48.443,89.200 49.516,89.200 51.582 C 89.200 53.421,90.094 54.315,92.204 54.585 C 94.180 54.838,95.162 55.820,95.415 57.796 C 95.681 59.870,96.585 60.800,98.336 60.800 C 100.175 60.800,101.600 62.102,101.600 63.781 C 101.600 65.563,102.574 66.726,104.311 67.019 C 105.130 67.157,106.100 67.351,106.467 67.451 C 107.219 67.656,108.000 69.572,108.000 71.214 C 108.000 72.389,110.275 73.887,111.402 73.454 C 112.464 73.047,113.999 74.740,114.009 76.329 C 114.022 78.441,115.021 79.491,117.212 79.694 C 119.303 79.888,120.226 80.348,120.232 81.200 C 120.253 84.186,121.077 85.410,123.303 85.760 C 124.952 86.020,126.381 86.766,126.434 87.396 C 126.453 87.618,126.511 88.340,126.563 89.000 C 126.722 91.016,127.557 91.903,129.575 92.201 C 131.977 92.556,132.800 93.337,132.800 95.262 C 132.800 97.305,133.895 98.400,135.938 98.400 C 137.874 98.400,138.795 99.356,139.057 101.641 C 139.277 103.550,139.937 104.218,141.993 104.607 C 144.317 105.048,144.702 105.435,145.005 107.637 C 145.353 110.170,146.157 111.013,148.567 111.374 C 150.538 111.670,151.200 112.473,151.200 114.571 C 151.200 115.975,152.888 117.416,154.671 117.533 C 156.485 117.652,157.493 118.552,157.655 120.200 C 157.865 122.332,158.959 123.469,161.024 123.702 C 163.267 123.954,163.604 124.259,163.874 126.278 C 164.182 128.570,165.081 129.520,167.158 129.750 C 169.370 129.995,170.005 130.630,170.250 132.842 C 170.486 134.971,171.580 135.978,173.671 135.991 C 175.260 136.001,176.953 137.536,176.546 138.598 C 176.099 139.761,177.620 141.975,179.150 142.387 C 179.954 142.603,181.485 143.334,182.552 144.011 C 183.619 144.687,184.539 145.187,184.595 145.120 C 186.274 143.156,186.187 146.357,186.400 78.582 C 186.592 17.564,186.630 14.916,187.340 13.782 C 189.111 10.954,191.268 10.212,194.841 11.205 M324.542 23.269 C 324.071 23.498,323.498 24.071,323.269 24.542 C 323.041 25.014,322.842 25.175,322.827 24.900 C 322.792 24.252,324.252 22.792,324.900 22.827 C 325.175 22.842,325.014 23.041,324.542 23.269 M317.900 29.429 C 317.295 29.757,316.800 30.230,316.800 30.479 C 316.800 30.729,316.681 30.814,316.536 30.669 C 316.150 30.283,317.614 28.797,318.362 28.816 C 318.754 28.826,318.575 29.062,317.900 29.429 M80.940 31.127 C 81.900 31.996,82.893 33.922,82.691 34.526 C 82.605 34.785,82.055 34.238,81.469 33.310 C 80.884 32.382,79.863 31.343,79.202 31.001 C 78.541 30.659,78.000 30.209,78.000 30.000 C 78.000 29.497,79.976 30.255,80.940 31.127 M87.280 37.501 C 88.379 38.529,89.438 40.800,88.819 40.800 C 88.632 40.800,88.120 40.191,87.681 39.447 C 87.242 38.703,86.324 37.764,85.641 37.361 C 84.959 36.957,84.400 36.474,84.400 36.287 C 84.400 35.704,86.147 36.441,87.280 37.501 M233.901 75.200 C 233.854 94.230,233.767 105.390,233.708 100.000 C 233.438 75.031,233.429 39.721,233.694 40.138 C 233.856 40.392,233.949 56.170,233.901 75.200 M231.690 40.892 C 231.456 41.173,231.189 42.032,231.097 42.802 C 230.954 43.983,230.918 43.902,230.864 42.276 C 230.824 41.081,230.951 40.446,231.200 40.600 C 231.420 40.736,231.600 40.627,231.600 40.357 C 231.600 40.087,231.716 39.982,231.857 40.124 C 231.998 40.265,231.923 40.611,231.690 40.892 M93.854 44.063 C 94.780 45.078,95.456 46.802,94.927 46.797 C 94.747 46.796,94.292 46.254,93.916 45.594 C 93.540 44.933,92.612 44.026,91.852 43.578 C 91.093 43.130,90.380 42.525,90.268 42.234 C 89.970 41.456,92.787 42.893,93.854 44.063 M98.704 49.198 C 99.870 49.909,101.595 52.115,101.599 52.900 C 101.602 53.640,100.763 53.088,100.185 51.972 C 99.836 51.296,98.932 50.379,98.175 49.932 C 97.419 49.486,96.800 48.959,96.800 48.760 C 96.800 48.215,97.269 48.323,98.704 49.198 M106.080 56.301 C 107.179 57.329,108.238 59.600,107.619 59.600 C 107.432 59.600,106.903 58.963,106.443 58.184 C 105.984 57.405,105.067 56.460,104.406 56.084 C 103.746 55.708,103.204 55.253,103.203 55.073 C 103.198 54.501,104.961 55.253,106.080 56.301 M228.699 75.300 C 228.633 78.875,228.579 75.950,228.579 68.800 C 228.579 61.650,228.633 58.725,228.699 62.300 C 228.766 65.875,228.766 71.725,228.699 75.300 M231.541 68.600 C 231.541 73.660,231.397 78.610,231.220 79.600 C 231.029 80.675,230.900 76.241,230.900 68.600 C 230.900 60.959,231.029 56.525,231.220 57.600 C 231.397 58.590,231.541 63.540,231.541 68.600 M228.697 102.100 C 228.621 103.695,228.559 102.390,228.559 99.200 C 228.559 96.010,228.621 94.705,228.697 96.300 C 228.773 97.895,228.773 100.505,228.697 102.100 M231.530 100.000 C 231.525 101.650,231.376 103.450,231.200 104.000 C 231.009 104.596,230.884 102.655,230.890 99.200 C 230.897 95.037,230.991 93.908,231.220 95.200 C 231.397 96.190,231.536 98.350,231.530 100.000 M306.694 113.021 C 305.206 114.586,303.520 116.807,302.948 117.954 C 302.376 119.102,301.810 119.944,301.691 119.824 C 301.571 119.705,301.241 119.800,300.958 120.035 C 300.674 120.271,299.864 120.554,299.158 120.666 C 296.434 121.095,296.119 121.384,295.827 123.726 C 295.529 126.106,295.084 126.400,291.779 126.400 C 290.191 126.400,288.800 127.915,288.800 129.645 C 288.800 130.944,287.767 131.769,285.600 132.200 C 283.511 132.616,282.526 133.402,281.985 135.086 C 281.330 137.127,280.549 137.936,278.943 138.237 C 277.350 138.536,275.600 140.426,275.600 141.849 C 275.600 142.980,273.968 144.800,272.953 144.800 C 271.631 144.800,268.801 146.782,268.787 147.717 C 268.769 148.964,267.876 149.996,266.329 150.554 C 262.935 151.779,260.829 153.208,259.780 154.997 C 259.199 155.989,258.531 156.800,258.295 156.800 C 258.060 156.800,257.986 156.919,258.131 157.064 C 258.551 157.485,256.879 158.463,254.858 158.978 C 253.542 159.314,252.965 159.677,252.877 160.226 C 252.809 160.652,252.645 161.270,252.513 161.600 C 252.381 161.930,252.298 162.324,252.328 162.476 C 252.359 162.627,252.027 162.864,251.592 163.003 C 251.156 163.141,250.800 163.392,250.800 163.560 C 250.800 163.729,250.575 163.894,250.300 163.927 C 246.897 164.335,245.824 164.975,245.677 166.684 C 245.414 169.737,244.785 170.400,242.153 170.400 C 240.240 170.400,238.800 171.720,238.800 173.472 C 238.800 174.903,237.106 176.400,235.488 176.400 C 233.591 176.400,232.462 177.709,232.380 180.002 C 232.308 182.030,231.691 184.000,231.128 184.000 C 230.922 184.000,230.880 183.775,231.035 183.500 C 231.261 183.100,231.210 183.100,230.779 183.500 C 230.482 183.775,229.736 184.000,229.120 184.000 L 228.000 184.000 227.964 191.400 C 227.904 203.620,227.903 203.615,228.300 203.553 C 229.667 203.337,231.608 203.664,231.358 204.068 C 231.169 204.374,231.279 204.455,231.676 204.303 C 232.179 204.110,232.291 204.525,232.328 206.710 C 232.384 209.972,233.039 210.768,236.065 211.246 C 238.290 211.598,239.071 212.233,239.448 214.000 C 239.957 216.379,240.415 216.800,242.494 216.800 C 244.541 216.800,246.177 217.389,245.805 217.992 C 245.685 218.186,245.773 218.460,246.000 218.600 C 246.227 218.740,246.302 219.035,246.167 219.254 C 245.283 220.684,246.409 222.271,248.774 222.929 C 251.344 223.644,252.477 224.766,252.982 227.100 C 253.203 228.119,253.467 228.400,254.206 228.400 C 255.656 228.400,257.188 229.106,258.347 230.308 C 259.941 231.961,261.040 232.770,260.647 232.000 C 260.479 231.670,260.624 231.749,260.970 232.176 C 261.317 232.604,261.600 233.149,261.600 233.388 C 261.600 233.628,261.983 234.088,262.452 234.412 C 264.461 235.798,266.626 237.733,266.961 238.438 C 267.160 238.857,267.485 239.200,267.685 239.200 C 267.884 239.200,267.958 239.344,267.850 239.519 C 267.422 240.211,270.558 242.522,273.400 243.610 C 274.280 243.947,275.022 244.443,275.050 244.711 C 275.078 244.980,275.123 245.456,275.150 245.769 C 275.250 246.905,277.274 248.789,278.850 249.214 C 280.774 249.732,281.945 250.824,282.259 252.394 C 282.505 253.625,285.157 255.345,286.195 254.947 C 286.983 254.644,288.400 256.750,288.400 258.225 C 288.400 259.669,289.879 261.200,291.274 261.200 C 292.982 261.200,294.384 262.356,294.643 263.978 C 294.973 266.041,296.538 267.530,298.515 267.664 C 300.485 267.796,301.600 268.853,301.600 270.587 C 301.600 271.990,302.224 272.689,304.684 274.038 C 305.415 274.438,306.242 275.508,306.908 276.915 C 308.353 279.967,308.949 280.225,312.660 279.400 C 315.878 278.684,316.344 278.232,315.664 276.493 C 315.428 275.892,315.183 275.040,315.118 274.600 C 315.053 274.160,314.820 273.672,314.600 273.515 C 314.165 273.204,314.052 122.785,314.483 117.858 C 314.753 114.779,314.028 112.942,312.044 111.682 C 311.470 111.317,310.910 110.911,310.800 110.780 C 310.082 109.924,309.159 110.427,306.694 113.021 M303.101 194.395 C 303.170 239.458,303.071 260.768,302.795 260.597 C 302.570 260.458,302.478 260.197,302.589 260.018 C 302.700 259.838,302.568 259.698,302.296 259.708 C 302.023 259.718,300.675 259.698,299.300 259.663 L 296.800 259.600 296.800 257.774 C 296.800 256.769,296.614 255.599,296.386 255.174 C 296.096 254.632,296.101 254.400,296.402 254.400 C 296.667 254.400,296.634 254.187,296.316 253.844 C 296.032 253.539,295.705 253.439,295.589 253.623 C 295.474 253.807,295.114 253.790,294.789 253.585 C 294.465 253.380,293.345 253.209,292.300 253.206 C 290.774 253.201,290.393 253.062,290.364 252.500 C 290.344 252.115,290.298 250.826,290.262 249.635 C 290.188 247.221,290.249 247.258,286.000 247.077 L 284.200 247.000 284.336 245.100 C 284.426 243.849,284.314 243.200,284.009 243.200 C 283.735 243.200,283.645 242.887,283.789 242.434 C 284.124 241.379,283.410 241.040,280.639 240.938 C 277.890 240.837,277.507 240.455,277.839 238.146 C 278.084 236.445,277.535 234.800,276.724 234.800 C 276.471 234.800,276.565 235.119,276.938 235.531 C 278.110 236.826,277.642 236.837,276.406 235.544 C 275.338 234.425,275.028 234.315,273.450 234.493 L 271.688 234.692 271.518 232.334 C 271.306 229.410,270.693 228.749,267.950 228.486 C 265.291 228.230,264.967 227.912,265.142 225.727 C 265.342 223.237,264.584 222.526,261.363 222.181 L 258.800 221.907 258.794 220.453 C 258.785 218.298,257.996 217.072,256.246 216.496 C 254.381 215.883,247.592 215.508,247.016 215.987 C 246.734 216.221,246.616 215.438,246.651 213.559 C 246.678 212.034,246.543 210.689,246.351 210.569 C 246.158 210.450,246.000 209.818,246.000 209.164 C 246.000 206.149,243.914 204.000,240.989 204.000 C 240.419 204.000,240.036 203.865,240.137 203.700 C 240.239 203.535,239.792 203.362,239.144 203.315 C 238.352 203.257,237.382 202.645,236.183 201.446 L 234.400 199.663 234.400 192.032 C 234.400 187.834,234.535 184.378,234.700 184.351 C 234.865 184.324,236.080 184.248,237.400 184.182 C 238.720 184.117,239.946 184.049,240.124 184.032 C 240.302 184.014,240.318 183.775,240.159 183.500 C 240.001 183.225,240.005 183.119,240.167 183.265 C 241.359 184.332,245.594 181.106,245.599 179.129 C 245.599 178.759,245.825 178.219,246.100 177.929 C 246.375 177.638,246.659 176.232,246.732 174.804 C 246.884 171.803,247.102 171.578,249.800 171.633 C 251.824 171.675,255.058 171.376,256.693 170.996 C 257.814 170.735,258.800 168.875,258.800 167.020 C 258.800 166.024,258.979 165.600,259.400 165.600 C 259.730 165.600,260.000 165.464,260.000 165.297 C 260.000 165.131,260.793 165.057,261.763 165.134 C 264.208 165.329,265.331 164.224,265.137 161.814 C 264.958 159.575,265.521 159.105,268.454 159.047 C 271.094 158.995,271.643 158.563,271.566 156.600 C 271.427 153.062,271.455 153.004,273.300 152.958 C 277.626 152.852,277.865 152.677,277.894 149.580 C 277.922 146.631,277.720 146.835,280.727 146.706 C 282.087 146.648,283.200 146.454,283.200 146.276 C 283.200 146.098,283.378 146.063,283.595 146.197 C 283.822 146.337,283.889 146.177,283.753 145.821 C 283.617 145.467,283.726 145.200,284.007 145.200 C 284.341 145.200,284.423 144.814,284.260 144.000 C 283.695 141.177,284.248 140.400,286.821 140.400 C 289.874 140.400,290.400 139.867,290.400 136.771 C 290.400 134.119,289.956 134.407,294.267 134.258 C 295.183 134.226,295.858 134.125,295.766 134.032 C 295.674 133.940,295.876 133.558,296.216 133.183 C 296.555 132.807,296.805 132.343,296.769 132.150 C 296.734 131.958,296.727 130.898,296.753 129.796 L 296.800 127.792 299.900 127.867 L 303.000 127.941 303.101 194.395 M233.898 195.500 C 233.826 197.645,233.767 195.890,233.767 191.600 C 233.767 187.310,233.826 185.555,233.898 187.700 C 233.970 189.845,233.970 193.355,233.898 195.500 M244.725 207.905 C 245.841 209.929,245.234 210.197,244.012 208.220 C 243.543 207.461,242.539 206.457,241.780 205.988 C 239.803 204.766,240.071 204.159,242.095 205.275 C 243.165 205.866,244.134 206.835,244.725 207.905 M233.900 330.300 C 233.840 339.925,233.791 332.050,233.791 312.800 C 233.791 293.550,233.840 285.675,233.900 295.300 C 233.960 304.925,233.960 320.675,233.900 330.300 M299.035 345.955 C 298.834 346.040,298.429 345.781,298.135 345.379 C 297.290 344.223,297.511 343.941,298.500 344.914 C 298.995 345.401,299.236 345.870,299.035 345.955 M305.754 352.332 C 305.535 352.671,304.000 351.506,304.000 351.000 C 304.000 350.596,304.269 350.688,304.920 351.314 C 305.426 351.801,305.802 352.260,305.754 352.332 M317.887 364.738 C 317.428 364.939,316.400 363.990,316.400 363.365 C 316.400 363.020,316.721 363.144,317.300 363.714 C 317.795 364.201,318.059 364.662,317.887 364.738 " stroke="none" fill="currentColor" fill-rule="evenodd">
		</path>
	</g>
</svg>
